<?xml version="1.0" encoding="UTF-8" standalone="no"?>
<!-- Created with Inkscape (http://www.inkscape.org/) -->

<svg
   xmlns:dc="http://purl.org/dc/elements/1.1/"
   xmlns:cc="http://creativecommons.org/ns#"
   xmlns:rdf="http://www.w3.org/1999/02/22-rdf-syntax-ns#"
   xmlns:svg="http://www.w3.org/2000/svg"
   xmlns="http://www.w3.org/2000/svg"
   xmlns:sodipodi="http://sodipodi.sourceforge.net/DTD/sodipodi-0.dtd"
   xmlns:inkscape="http://www.inkscape.org/namespaces/inkscape"
   version="1.1"
   id="svg4640"
   xml:space="preserve"
   width="657.63788"
   height="571.65649"
   viewBox="0 0 657.63787 571.65648"
   sodipodi:docname="open-digit-p30-roadmap-ca.svg"
   inkscape:version="0.92.3 (2405546, 2018-03-11)"><metadata
     id="metadata4646"><rdf:RDF><cc:Work
         rdf:about=""><dc:format>image/svg+xml</dc:format><dc:type
           rdf:resource="http://purl.org/dc/dcmitype/StillImage" /><dc:title></dc:title></cc:Work></rdf:RDF></metadata><defs
     id="defs4644"><clipPath
       clipPathUnits="userSpaceOnUse"
       id="clipPath4658"><path
         d="M 0,841.89 H 595.276 V 0 H 0 Z"
         id="path4656"
         inkscape:connector-curvature="0" /></clipPath><clipPath
       clipPathUnits="userSpaceOnUse"
       id="clipPath4710"><path
         d="M 0,0 H 595.276 V 841.89 H 0 Z"
         id="path4708"
         inkscape:connector-curvature="0" /></clipPath><clipPath
       clipPathUnits="userSpaceOnUse"
       id="clipPath4864"><path
         d="M 0,0 H 595.276 V 841.89 H 0 Z"
         id="path4862"
         inkscape:connector-curvature="0" /></clipPath></defs><sodipodi:namedview
     pagecolor="#ffffff"
     bordercolor="#666666"
     borderopacity="1"
     objecttolerance="10"
     gridtolerance="10"
     guidetolerance="10"
     inkscape:pageopacity="0"
     inkscape:pageshadow="2"
     inkscape:window-width="1280"
     inkscape:window-height="961"
     id="namedview4642"
     showgrid="false"
     fit-margin-top="0"
     fit-margin-left="0"
     fit-margin-right="0"
     fit-margin-bottom="0"
     inkscape:zoom="0.5573222"
     inkscape:cx="300.47281"
     inkscape:cy="58.583203"
     inkscape:window-x="-4"
     inkscape:window-y="-4"
     inkscape:window-maximized="1"
     inkscape:current-layer="g4648" /><g
     id="g4648"
     inkscape:groupmode="layer"
     inkscape:label="open-digit-p30-roadmap-ca"
     transform="matrix(1.3333333,0,0,-1.3333333,-96.377864,1074.3333)"><text
       transform="matrix(1,0,0,-1,82.9134,784.4955)"
       style="font-variant:normal;font-weight:300;font-stretch:normal;font-size:11px;font-family:'Apercu Light';-inkscape-font-specification:Apercu-Light;writing-mode:lr-tb;fill:#000000;fill-opacity:1;fill-rule:nonzero;stroke:none"
       id="text4672"><tspan
         x="0 6.4569998 9.4181995"
         y="0"
         sodipodi:role="line"
         id="tspan4670">El </tspan></text>
<text
       transform="matrix(1,0,0,-1,95.3874,784.4955)"
       style="font-variant:normal;font-weight:bold;font-stretch:normal;font-size:11px;font-family:Apercu;-inkscape-font-specification:Apercu-Bold;writing-mode:lr-tb;fill:#000000;fill-opacity:1;fill-rule:nonzero;stroke:none"
       id="text4676"><tspan
         x="0 6.7870002 10.0848 16.0138 19.0168 25.746599 32.1376 35.140598 44.191399 49.931198 56.617001 63.379799 69.372597"
         y="0"
         sodipodi:role="line"
         id="tspan4674">Pla de Mandat</tspan></text>
<text
       transform="matrix(1,0,0,-1,172.394,784.4955)"
       style="font-variant:normal;font-weight:300;font-stretch:normal;font-size:11px;font-family:'Apercu Light';-inkscape-font-specification:Apercu-Light;writing-mode:lr-tb;fill:#000000;fill-opacity:1;fill-rule:nonzero;stroke:none"
       id="text4682"><tspan
         x="0 6.2831998 11.5104 14.5574 20.5986 27.2096 33.470798 37.312 43.716202 48.239399 57.798401 63.641602 66.688599 73.653801 79.912804 84.579002"
         y="0"
         sodipodi:role="line"
         id="tspan4678">es conforma per:</tspan><tspan
         x="-86.642601 -80.251602 -77.3619"
         y="205.744"
         sodipodi:role="line"
         id="tspan4680">El </tspan></text>
<text
       transform="matrix(1,0,0,-1,97.4554,578.7515)"
       style="font-variant:normal;font-weight:bold;font-stretch:normal;font-size:11px;font-family:Apercu;-inkscape-font-specification:Apercu-Bold;writing-mode:lr-tb;fill:#000000;fill-opacity:1;fill-rule:nonzero;stroke:none"
       id="text4686"><tspan
         x="0 5.8685002 10.78 16.5924 23.252899 25.6399 32.431301 34.9888 41.264301 46.538799 53.089298 59.352699 65.925201 72.189697 75.351097 82.132599 84.5196 91.180099 97.455597 100.716 103.103 109.7415 114.609 120.9285 126.0919 132.4994 139.3689 146.0954 151.2379 155.7523 158.1393 164.7998 171.11929 173.5063 180.0117 186.8922 191.5507"
         y="0"
         sodipodi:role="line"
         id="tspan4684">grau d’execució del presupost de 2017</tspan></text>
<text
       transform="matrix(1,0,0,-1,297.0944,578.7515)"
       style="font-variant:normal;font-weight:300;font-stretch:normal;font-size:11px;font-family:'Apercu Light';-inkscape-font-specification:Apercu-Light;writing-mode:lr-tb;fill:#000000;fill-opacity:1;fill-rule:nonzero;stroke:none"
       id="text4692"><tspan
         x="0 6.5098 12.7908 15.2108 21.1376 26.954399 33.584099 39.3591 41.779099 48.276798 50.925598 56.7006 59.120602 64.895599 67.315598 71.284401 74.142197 80.530998 86.104698 88.786499 93.945503 96.365501 102.8742 109.1552 111.5752 114.279 120.5347 126.8685 132.0495 134.4695 140.6823 145.84129 148.26131 154.5731 157.46609 159.88609 164.9109 171.04671 176.7084 183.05321 189.222 195.49969 199.7897"
         y="0"
         sodipodi:role="line"
         id="tspan4688">de cada Pla a finals de juny és el següent:</tspan><tspan
         x="-211.332 -204.875 -201.9138"
         y="163.58099"
         sodipodi:role="line"
         id="tspan4690">El </tspan></text>
<text
       transform="matrix(1,0,0,-1,99.0284,415.1705)"
       style="font-variant:normal;font-weight:bold;font-stretch:normal;font-size:11px;font-family:Apercu;-inkscape-font-specification:Apercu-Bold;writing-mode:lr-tb;fill:#000000;fill-opacity:1;fill-rule:nonzero;stroke:none"
       id="text4696"><tspan
         x="0 6.369 13.156 16.4538 22.382799 26.1668 32.896599 39.287601 43.071602 52.122398 57.862202 64.547997 71.310799 77.303596 82.152397"
         y="0"
         sodipodi:role="line"
         id="tspan4694">“Pla de Mandat”</tspan></text>
<text
       transform="matrix(1,0,0,-1,191.3943,415.1705)"
       style="font-variant:normal;font-weight:300;font-stretch:normal;font-size:11px;font-family:'Apercu Light';-inkscape-font-specification:Apercu-Light;writing-mode:lr-tb;fill:#000000;fill-opacity:1;fill-rule:nonzero;stroke:none"
       id="text4702"><tspan
         x="0 6.0412002 12.6544 19.003599 23.174801 29.447001 38.854198 45.456402 48.175598 54.016602 57.861099 60.646301 66.929497 72.154503 75.997902 82.5242 88.938301 94.9795 101.2627 106.1489 110.9812 114.1514 118.4216 124.1988 128.44701 133.672 137.5154 144.0956 150.4426 154.28709 156.8083 160.10831 166.8073 169.5815 175.90871 182.2579 186.52811 192.2173 201.78951 208.0287 214.379 218.735 222.5784 225.9334 229.77789 236.1601 239.11909 242.96249 247.4857 254.4509 260.98819 266.5993 271.19949 276.8898 286.45099 292.29199 296.13541 302.71561 308.7876"
         y="0"
         sodipodi:role="line"
         id="tspan4698">contempla les necessitats de l’Ajuntament i el rpograma de </tspan><tspan
         x="-105.6319 -99.315697 -96.288498 -90.720299 -87.550102 -83.2799 -77.634697 -75.234497 -72.064301 -67.772102 -62.5779 -56.690701 -50.956402 -47.7752 -41.076199 -38.029202 -31.57 -24.604799 -18.343599 -13.3034 -9.0332003 -3.1921999 -0.1452 3.2098 6.2568002 12.837 19.120199 24.215401 30.454599 37.065601 42.149799 48.598 51.306198 57.644402 64.455597 70.144798 79.717003 85.9562 92.306503 96.662498 99.709503 105.5428 111.111 113.9732 116.9322 119.9792 126.5594 132.9064 135.9534 141.0486 147.3098 152.108 157.24719 163.5744 166.5136 171.2238"
         y="14.003"
         sodipodi:role="line"
         id="tspan4700">digitalització oberta i desenvolupament àgil de serveis.</tspan></text>
<g
       id="g4704"><g
         id="g4706"
         clip-path="url(#clipPath4710)"><g
           id="g4712"
           transform="translate(174.5972,659.2227)"><path
             d="M 0,0 C 25.859,0 46.822,20.961 46.822,46.82 46.822,72.68 25.859,93.645 0,93.645 -25.859,93.645 -46.822,72.68 -46.822,46.82 -46.822,20.961 -25.859,0 0,0 Z"
             style="fill:none;stroke:#3c2dfa;stroke-width:6.55000019;stroke-linecap:butt;stroke-linejoin:miter;stroke-miterlimit:4;stroke-dasharray:none;stroke-opacity:1"
             id="path4714"
             inkscape:connector-curvature="0" /></g><g
           id="g4716"
           transform="translate(215.649,444.2148)"><path
             d="M 0,0 C 18.263,0 33.068,14.805 33.068,33.068 33.068,51.33 18.263,66.137 0,66.137 -18.263,66.137 -33.068,51.33 -33.068,33.068 -33.068,14.805 -18.263,0 0,0 Z"
             style="fill:none;stroke:#c3c5ca;stroke-width:4.62599993;stroke-linecap:butt;stroke-linejoin:miter;stroke-miterlimit:4;stroke-dasharray:none;stroke-opacity:1"
             id="path4718"
             inkscape:connector-curvature="0" /></g><g
           id="g4720"
           transform="translate(310.2442,444.2148)"><path
             d="M 0,0 C 18.263,0 33.068,14.805 33.068,33.068 33.068,51.33 18.263,66.137 0,66.137 -18.263,66.137 -33.068,51.33 -33.068,33.068 -33.068,14.805 -18.263,0 0,0 Z"
             style="fill:none;stroke:#c3c5ca;stroke-width:4.62599993;stroke-linecap:butt;stroke-linejoin:miter;stroke-miterlimit:4;stroke-dasharray:none;stroke-opacity:1"
             id="path4722"
             inkscape:connector-curvature="0" /></g><g
           id="g4724"
           transform="translate(404.8394,444.2148)"><path
             d="M 0,0 C 18.263,0 33.068,14.805 33.068,33.068 33.068,51.33 18.263,66.137 0,66.137 -18.263,66.137 -33.068,51.33 -33.068,33.068 -33.068,14.805 -18.263,0 0,0 Z"
             style="fill:none;stroke:#c3c5ca;stroke-width:4.62599993;stroke-linecap:butt;stroke-linejoin:miter;stroke-miterlimit:4;stroke-dasharray:none;stroke-opacity:1"
             id="path4726"
             inkscape:connector-curvature="0" /></g><g
           id="g4728"
           transform="translate(208.0043,607.6562)"><path
             d="M 0,0 C 25.859,0 46.822,20.961 46.822,46.82 46.822,72.68 25.859,93.645 0,93.645 -25.859,93.645 -46.822,72.68 -46.822,46.82 -46.822,20.961 -25.859,0 0,0 Z"
             style="fill:none;stroke:#ffe100;stroke-width:6.55000019;stroke-linecap:butt;stroke-linejoin:miter;stroke-miterlimit:4;stroke-dasharray:none;stroke-opacity:1"
             id="path4730"
             inkscape:connector-curvature="0" /></g><g
           id="g4732"
           transform="translate(135.1366,607.6562)"><path
             d="M 0,0 C 25.859,0 46.822,20.961 46.822,46.82 46.822,72.68 25.859,93.645 0,93.645 -25.859,93.645 -46.822,72.68 -46.822,46.82 -46.822,20.961 -25.859,0 0,0 Z"
             style="fill:none;stroke:#ff4e51;stroke-width:6.55000019;stroke-linecap:butt;stroke-linejoin:miter;stroke-miterlimit:4;stroke-dasharray:none;stroke-opacity:1"
             id="path4734"
             inkscape:connector-curvature="0" /></g></g></g><text
       transform="matrix(1,0,0,-1,167.1503,726.5621)"
       style="font-variant:normal;font-weight:normal;font-stretch:normal;font-size:11px;font-family:Apercu;-inkscape-font-specification:Apercu;writing-mode:lr-tb;fill:#000000;fill-opacity:1;fill-rule:nonzero;stroke:none"
       id="text4740"><tspan
         x="0 6.4239998 9.1960001 14.894"
         y="0"
         sodipodi:role="line"
         id="tspan4736">Pla </tspan><tspan
         x="-14.696 -8.9429998 -2.6400001 3.4430001 7.5019999 13.794 18.226999 21.131001 26.763"
         y="13.002"
         sodipodi:role="line"
         id="tspan4738">Sectorial</tspan></text>
<text
       transform="matrix(1,0,0,-1,422.0513,733.3829)"
       style="font-variant:normal;font-weight:normal;font-stretch:normal;font-size:6px;font-family:Apercu;-inkscape-font-specification:Apercu;writing-mode:lr-tb;fill:#000000;fill-opacity:1;fill-rule:nonzero;stroke:none"
       id="text4762"><tspan
         x="0 1.482 4.8540001 6.3899999 9.5880003 11.172 14.328 16.584 18.263399 20.957399 24.281401"
         y="0"
         sodipodi:role="line"
         id="tspan4742">Iniciatives</tspan><tspan
         x="0.63 4.29 7.6620002 11.052 14.58 17.952 21.396 23.646 26.412001"
         y="7.9980001"
         sodipodi:role="line"
         id="tspan4744">pendents </tspan><tspan
         x="5.256 8.8620005 10.656 12.066 15.438 16.974001 20.172001"
         y="15.996"
         sodipodi:role="line"
         id="tspan4746">d’inici</tspan><tspan
         x="6.3720002 8.1239996 12.078 15.234 18.761999 22.086 24.851999 26.459999 29.568001 31.176001 34.613998 38.358002 41.616001 45.341999 48.846001 52.104 55.4394 59.051399 61.385399 64.277397"
         y="108.084"
         sodipodi:role="line"
         id="tspan4748">(Dades a 30/08/2017)</tspan><tspan
         x="33.875999 35.358002 38.73 40.265999 43.464001 45.048 48.203999 50.459999 52.1394 54.833401 58.157398"
         y="-2.1316282e-014"
         sodipodi:role="line"
         id="tspan4750">Iniciatives</tspan><tspan
         x="37.374001 40.745998 44.208 45.816002 49.043999 52.368 54.653999"
         y="7.9980001"
         sodipodi:role="line"
         id="tspan4752">en curs</tspan><tspan
         x="70.722 72.204002 75.575996 77.112 80.309998 81.893997 85.050003 87.306 88.985397 91.679398 95.003403"
         y="-2.1316282e-014"
         sodipodi:role="line"
         id="tspan4754">Iniciatives</tspan><tspan
         x="68.958 72.222 75.617996 78.690002 80.082001 81.683998 84.017998 86.765999 89.921402 93.449402 96.773399"
         y="7.9980001"
         sodipodi:role="line"
         id="tspan4756">fnalitzades</tspan><tspan
         x="103.848 108.9 110.508 113.904 116.58 120.018 123.246 126.66 129.858 131.3934"
         y="-2.1316282e-014"
         sodipodi:role="line"
         id="tspan4758">% Execució</tspan><tspan
         x="105.906 107.316 110.688 112.224 115.422 117.006 120.162 122.418 124.0974 126.7914 130.1154"
         y="7.9980001"
         sodipodi:role="line"
         id="tspan4760">iniciatives</tspan></text>
<text
       transform="matrix(1,0,0,-1,120.5694,658.4856)"
       style="font-variant:normal;font-weight:normal;font-stretch:normal;font-size:11px;font-family:Apercu;-inkscape-font-specification:Apercu;writing-mode:lr-tb;fill:#000000;fill-opacity:1;fill-rule:nonzero;stroke:none"
       id="text4782"><tspan
         x="0 6.4239998 9.1960001 14.894"
         y="0"
         sodipodi:role="line"
         id="tspan4764">Pla </tspan><tspan
         x="-13.354 -6.8860002 -0.72600001 2.2219999 4.994 10.692 13.64 16.389999 19.129 25.289"
         y="13.002"
         sodipodi:role="line"
         id="tspan4766">de la llei</tspan><tspan
         x="-14.927 -11.715 -5.9840002 -0.242 6.1269999 13.805 20.195999 26.620001"
         y="26.004"
         sodipodi:role="line"
         id="tspan4768">(LPACAP)</tspan><tspan
         x="87.472 93.896004 96.667999 102.366"
         y="120.263"
         sodipodi:role="line"
         id="tspan4770">Pla </tspan><tspan
         x="72.776001 78.528999 84.832001 90.915001 94.973999 101.266 105.699 108.603 114.235"
         y="133.265"
         sodipodi:role="line"
         id="tspan4772">Sectorial</tspan><tspan
         x="183.095 189.519 192.291 197.989"
         y="120.263"
         sodipodi:role="line"
         id="tspan4774">Pla </tspan><tspan
         x="145.882 152.35001 158.50999 161.45799 164.23 169.92799 172.87601 175.62601 178.36501 184.52499 187.495 190.44299 193.655 199.386 205.12801 211.49699 219.175 225.56599 231.99001"
         y="133.265"
         sodipodi:role="line"
         id="tspan4776">de la llei (LPACAP)</tspan><tspan
         x="276.92499 283.349 286.121 291.819"
         y="120.263"
         sodipodi:role="line"
         id="tspan4778">Pla </tspan><tspan
         x="257.70801 262.746 269.04901 274.96701 281.18201 287.55099 290.29001 296.72501 302.302 305.11801"
         y="133.265"
         sodipodi:role="line"
         id="tspan4780">Tecnològic</tspan></text>
<text
       transform="matrix(1,0,0,-1,201.4964,474.9836)"
       style="font-variant:normal;font-weight:bold;font-stretch:normal;font-size:11px;font-family:Apercu;-inkscape-font-specification:Apercu-Bold;writing-mode:lr-tb;fill:#ffe100;fill-opacity:1;fill-rule:nonzero;stroke:none"
       id="text4790"><tspan
         x="0 5.4120002 9.7460003 13.739 20.218"
         y="0"
         sodipodi:role="line"
         id="tspan4784">71,3%</tspan><tspan
         x="92.521004 99.098999 105.325 109.252 115.775"
         y="0"
         sodipodi:role="line"
         id="tspan4786">42,6%</tspan><tspan
         x="187.957 193.18201 199.41901 203.192 209.715"
         y="0"
         sodipodi:role="line"
         id="tspan4788">75,9%</tspan></text>
<text
       transform="matrix(1,0,0,-1,209.2624,652.0836)"
       style="font-variant:normal;font-weight:normal;font-stretch:normal;font-size:11px;font-family:Apercu;-inkscape-font-specification:Apercu;writing-mode:lr-tb;fill:#000000;fill-opacity:1;fill-rule:nonzero;stroke:none"
       id="text4796"><tspan
         x="0 6.4239998 9.1960001 14.894"
         y="0"
         sodipodi:role="line"
         id="tspan4792">Pla </tspan><tspan
         x="-19.216999 -14.179 -7.8759999 -1.9579999 4.257 10.626 13.365 19.799999 25.377001 28.193001"
         y="13.002"
         sodipodi:role="line"
         id="tspan4794">Tecnològic</tspan></text>
<path
       d="m 274.961,688.332 h 144.882 v 19.516 H 274.961 Z"
       style="fill:#3c2dfa;fill-opacity:1;fill-rule:nonzero;stroke:none"
       id="path4798"
       inkscape:connector-curvature="0" /><path
       d="m 424.945,688.332 h 28.913 v 19.516 h -28.913 z"
       style="fill:#a09afd;fill-opacity:1;fill-rule:nonzero;stroke:none"
       id="path4800"
       inkscape:connector-curvature="0" /><path
       d="m 424.945,662.301 h 28.913 v 19.516 h -28.913 z"
       style="fill:#ffa9aa;fill-opacity:1;fill-rule:nonzero;stroke:none"
       id="path4802"
       inkscape:connector-curvature="0" /><path
       d="m 424.945,636.709 h 28.913 v 19.516 h -28.913 z"
       style="fill:#fff079;fill-opacity:1;fill-rule:nonzero;stroke:none"
       id="path4804"
       inkscape:connector-curvature="0" /><path
       d="m 492.977,688.332 h 28.913 v 19.516 h -28.913 z"
       style="fill:#a09afd;fill-opacity:1;fill-rule:nonzero;stroke:none"
       id="path4806"
       inkscape:connector-curvature="0" /><path
       d="m 492.977,662.301 h 28.913 v 19.516 h -28.913 z"
       style="fill:#ffa9aa;fill-opacity:1;fill-rule:nonzero;stroke:none"
       id="path4808"
       inkscape:connector-curvature="0" /><path
       d="m 492.977,636.709 h 28.913 v 19.516 h -28.913 z"
       style="fill:#fff079;fill-opacity:1;fill-rule:nonzero;stroke:none"
       id="path4810"
       inkscape:connector-curvature="0" /><path
       d="m 458.961,688.332 h 28.913 v 19.516 h -28.913 z"
       style="fill:#a09afd;fill-opacity:1;fill-rule:nonzero;stroke:none"
       id="path4812"
       inkscape:connector-curvature="0" /><path
       d="m 458.961,662.301 h 28.913 v 19.516 h -28.913 z"
       style="fill:#ffa9aa;fill-opacity:1;fill-rule:nonzero;stroke:none"
       id="path4814"
       inkscape:connector-curvature="0" /><path
       d="m 458.961,636.709 h 28.913 v 19.516 h -28.913 z"
       style="fill:#fff079;fill-opacity:1;fill-rule:nonzero;stroke:none"
       id="path4816"
       inkscape:connector-curvature="0" /><path
       d="m 526.992,688.332 h 28.913 v 19.516 h -28.913 z"
       style="fill:#655afb;fill-opacity:1;fill-rule:nonzero;stroke:none"
       id="path4818"
       inkscape:connector-curvature="0" /><path
       d="m 526.992,662.301 h 28.913 v 19.516 h -28.913 z"
       style="fill:#ff7375;fill-opacity:1;fill-rule:nonzero;stroke:none"
       id="path4820"
       inkscape:connector-curvature="0" /><path
       d="m 526.992,636.709 h 28.913 v 19.516 h -28.913 z"
       style="fill:#ffe700;fill-opacity:1;fill-rule:nonzero;stroke:none"
       id="path4822"
       inkscape:connector-curvature="0" /><path
       d="m 274.961,662.301 h 144.882 v 19.516 H 274.961 Z"
       style="fill:#ff4e51;fill-opacity:1;fill-rule:nonzero;stroke:none"
       id="path4824"
       inkscape:connector-curvature="0" /><path
       d="m 274.961,636.709 h 144.882 v 19.516 H 274.961 Z"
       style="fill:#ffe100;fill-opacity:1;fill-rule:nonzero;stroke:none"
       id="path4826"
       inkscape:connector-curvature="0" /><text
       transform="matrix(1,0,0,-1,298.6721,695.2927)"
       style="font-variant:normal;font-weight:bold;font-stretch:normal;font-size:9px;font-family:Apercu;-inkscape-font-specification:Apercu-Bold;writing-mode:lr-tb;fill:#ffffff;fill-opacity:1;fill-rule:nonzero;stroke:none"
       id="text4856"><tspan
         x="0 2.5469999 7.6230001 10.044 15.003 17.451 22.131001 25.659 27.999001 32.093102 37.097099 41.201099 43.433102 48.761101 51.236099 55.862099 58.094101 63.053101 68.246101 73.394096 76.877098 82.133102 86.084099 88.532097 93.086098 135.38699 140.634"
         y="0"
         sodipodi:role="line"
         id="tspan4828">Iniciatives Pla Sectorial53</tspan><tspan
         x="138.006"
         y="26.028"
         id="tspan4830">3</tspan><tspan
         x="136.341 141.255"
         y="51.48"
         sodipodi:role="line"
         id="tspan4832">31</tspan><tspan
         x="167.436 171.162 176.814"
         y="-7.9936058e-015"
         sodipodi:role="line"
         id="tspan4834">105</tspan><tspan
         x="172.125"
         y="26.028"
         id="tspan4836">5</tspan><tspan
         x="169.677 174.06"
         y="51.48"
         sodipodi:role="line"
         id="tspan4838">70</tspan><tspan
         x="204.021 207.74699"
         y="-7.9936058e-015"
         sodipodi:role="line"
         id="tspan4840">10</tspan><tspan
         x="205.884"
         y="26.028"
         id="tspan4842">0</tspan><tspan
         x="206.10001"
         y="51.48"
         id="tspan4844">6</tspan><tspan
         x="233.67599 238.815 244.35001"
         y="-7.9936058e-015"
         sodipodi:role="line"
         id="tspan4846">64%</tspan><tspan
         x="229.545 234.58501 239.679 242.946 248.481"
         y="26.028"
         sodipodi:role="line"
         id="tspan4848">62,4%</tspan><tspan
         x="229.446 234.675 239.778 243.045 248.58"
         y="51.48"
         sodipodi:role="line"
         id="tspan4850">65,4%</tspan><tspan
         x="-16.857 -14.31 -9.2340002 -6.8130002 -1.854 0.59399998 5.2740002 8.802 11.142 15.2361 20.240101 24.344101 26.576099 31.9041 34.379101 39.0051 41.237099 46.5201 51.524101 53.7561 56.231098 60.857101 63.0891 65.294098 67.760101 72.764099 75.104103 77.336098 80.036102 84.932098 89.855103 95.1651 101.4471 106.9011 112.2291"
         y="26.028"
         sodipodi:role="line"
         id="tspan4852">Iniciatives Pla de la llei (LPACAP)</tspan><tspan
         x="-2.6370001 -0.090000004 4.9860001 7.4070001 12.366 14.814 19.493999 23.021999 25.362 29.4561 34.460098 38.564098 40.796101 46.1241 48.599098 53.225101 55.4571 59.687099 64.880096 69.839104 75.086098 80.432098 82.898102 88.253098 92.960098 95.381104"
         y="50.912998"
         sodipodi:role="line"
         id="tspan4854">Iniciatives Pla Tecnològic</tspan></text>
<g
       id="g4858"><g
         id="g4860"
         clip-path="url(#clipPath4864)"><g
           id="g4866"
           transform="translate(183.9537,467.8242)"><path
             d="m 0,0 c 4.069,-13.654 16.719,-23.609 31.695,-23.609 18.263,0 33.068,14.804 33.068,33.068 0,18.262 -14.805,33.068 -33.068,33.068"
             style="fill:none;stroke:#3c2dfa;stroke-width:4.62599993;stroke-linecap:butt;stroke-linejoin:miter;stroke-miterlimit:4;stroke-dasharray:none;stroke-opacity:1"
             id="path4868"
             inkscape:connector-curvature="0" /></g><g
           id="g4870"
           transform="translate(326.3421,448.3906)"><path
             d="m 0,0 c 10.124,5.652 16.97,16.473 16.97,28.893 0,18.261 -14.805,33.068 -33.068,33.068"
             style="fill:none;stroke:#ff4e51;stroke-width:4.62599993;stroke-linecap:butt;stroke-linejoin:miter;stroke-miterlimit:4;stroke-dasharray:none;stroke-opacity:1"
             id="path4872"
             inkscape:connector-curvature="0" /></g><g
           id="g4874"
           transform="translate(372.1391,482.2305)"><path
             d="m 0,0 c -0.242,-1.613 -0.368,-3.266 -0.368,-4.947 0,-18.264 14.805,-33.069 33.068,-33.069 18.263,0 33.068,14.805 33.068,33.069 0,18.261 -14.805,33.068 -33.068,33.068"
             style="fill:none;stroke:#ffe100;stroke-width:4.62599993;stroke-linecap:butt;stroke-linejoin:miter;stroke-miterlimit:4;stroke-dasharray:none;stroke-opacity:1"
             id="path4876"
             inkscape:connector-curvature="0" /></g></g></g><g
       id="g4882"
       transform="translate(73.2834,786.9687)"><path
         d="M 0,0 V -397.105"
         style="fill:none;stroke:#ff4e51;stroke-width:2;stroke-linecap:butt;stroke-linejoin:miter;stroke-miterlimit:4;stroke-dasharray:11.854, 11.854;stroke-dashoffset:0;stroke-opacity:1"
         id="path4884"
         inkscape:connector-curvature="0" /></g><g
       id="g4886"
       transform="translate(91.7045,378.0078)"><path
         d="M 0,0 H 460.527"
         style="fill:none;stroke:#ff4e51;stroke-width:2;stroke-linecap:butt;stroke-linejoin:miter;stroke-miterlimit:4;stroke-dasharray:12.281, 12.281;stroke-dashoffset:0;stroke-opacity:1"
         id="path4888"
         inkscape:connector-curvature="0" /></g><g
       id="g4890"
       transform="translate(564.5118,395.7891)"><path
         d="M 0,0 V 397.105"
         style="fill:none;stroke:#ff4e51;stroke-width:2;stroke-linecap:butt;stroke-linejoin:miter;stroke-miterlimit:4;stroke-dasharray:11.854, 11.854;stroke-dashoffset:0;stroke-opacity:1"
         id="path4892"
         inkscape:connector-curvature="0" /></g><g
       id="g4894"
       transform="translate(546.0907,804.75)"><path
         d="M 0,0 H -460.527"
         style="fill:none;stroke:#ff4e51;stroke-width:2;stroke-linecap:butt;stroke-linejoin:miter;stroke-miterlimit:4;stroke-dasharray:12.281, 12.281;stroke-dashoffset:0;stroke-opacity:1"
         id="path4896"
         inkscape:connector-curvature="0" /></g><g
       id="g4898"
       transform="translate(73.2834,383.9336)"><path
         d="m 0,0 v -5.926 h 6.14 m 478.948,0 h 6.14 V 0 m 0,414.887 v 5.929 h -6.14 m -478.948,0 H 0 v -5.929"
         style="fill:none;stroke:#ff4e51;stroke-width:2;stroke-linecap:butt;stroke-linejoin:miter;stroke-miterlimit:4;stroke-dasharray:none;stroke-opacity:1"
         id="path4900"
         inkscape:connector-curvature="0" /></g></g></svg>