<?xml version="1.0" encoding="UTF-8" standalone="no"?>
<!-- Created with Inkscape (http://www.inkscape.org/) -->

<svg
   xmlns:dc="http://purl.org/dc/elements/1.1/"
   xmlns:cc="http://creativecommons.org/ns#"
   xmlns:rdf="http://www.w3.org/1999/02/22-rdf-syntax-ns#"
   xmlns:svg="http://www.w3.org/2000/svg"
   xmlns="http://www.w3.org/2000/svg"
   xmlns:sodipodi="http://sodipodi.sourceforge.net/DTD/sodipodi-0.dtd"
   xmlns:inkscape="http://www.inkscape.org/namespaces/inkscape"
   version="1.1"
   id="svg291"
   xml:space="preserve"
   width="622.28931"
   height="294.50934"
   viewBox="0 0 622.2893 294.50933"
   sodipodi:docname="open-digit-p9-axes-ca.svg"
   inkscape:version="0.92.3 (2405546, 2018-03-11)"><metadata
     id="metadata297"><rdf:RDF><cc:Work
         rdf:about=""><dc:format>image/svg+xml</dc:format><dc:type
           rdf:resource="http://purl.org/dc/dcmitype/StillImage" /><dc:title></dc:title></cc:Work></rdf:RDF></metadata><defs
     id="defs295"><clipPath
       clipPathUnits="userSpaceOnUse"
       id="clipPath309"><path
         d="M 0,841.89 H 595.276 V 0 H 0 Z"
         id="path307"
         inkscape:connector-curvature="0" /></clipPath></defs><sodipodi:namedview
     pagecolor="#ffffff"
     bordercolor="#666666"
     borderopacity="1"
     objecttolerance="10"
     gridtolerance="10"
     guidetolerance="10"
     inkscape:pageopacity="0"
     inkscape:pageshadow="2"
     inkscape:window-width="1366"
     inkscape:window-height="705"
     id="namedview293"
     showgrid="false"
     fit-margin-top="0"
     fit-margin-left="0"
     fit-margin-right="0"
     fit-margin-bottom="0"
     inkscape:zoom="0.84"
     inkscape:cx="270.62535"
     inkscape:cy="100.35858"
     inkscape:window-x="-4"
     inkscape:window-y="-4"
     inkscape:window-maximized="1"
     inkscape:current-layer="g299" /><g
     id="g299"
     inkscape:groupmode="layer"
     inkscape:label="open-digit-p9-axes-ca"
     transform="matrix(1.3333333,0,0,-1.3333333,-126.22533,581.51199)"><path
       d="M 95.539,216.708 H 219.082 V 435.59 H 95.539 Z"
       style="fill:#a09afd;fill-opacity:1;fill-rule:nonzero;stroke:none"
       id="path407"
       inkscape:connector-curvature="0" /><path
       d="M 95.669,216.252 H 219.212 V 435.134 H 95.669 Z"
       style="fill:none;stroke:#3c2dfa;stroke-width:2;stroke-linecap:butt;stroke-linejoin:miter;stroke-miterlimit:4;stroke-dasharray:none;stroke-opacity:1"
       id="path409"
       inkscape:connector-curvature="0" /><path
       d="M 262.618,216.708 H 560.256 V 435.59 H 262.618 Z"
       style="fill:#a09afd;fill-opacity:1;fill-rule:nonzero;stroke:none"
       id="path411"
       inkscape:connector-curvature="0" /><path
       d="M 262.748,216.252 H 560.386 V 435.134 H 262.748 Z"
       style="fill:none;stroke:#3c2dfa;stroke-width:2;stroke-linecap:butt;stroke-linejoin:miter;stroke-miterlimit:4;stroke-dasharray:none;stroke-opacity:1"
       id="path413"
       inkscape:connector-curvature="0" /><text
       transform="matrix(1,0,0,-1,134.0999,407.657)"
       style="font-variant:normal;font-weight:bold;font-stretch:normal;font-size:17px;font-family:Apercu;-inkscape-font-specification:Apercu-Bold;writing-mode:lr-tb;fill:#3c2dfa;fill-opacity:1;fill-rule:nonzero;stroke:none"
       id="text417"><tspan
         x="0 9.5539999 14.722 24.785999 37.553001"
         y="0"
         sodipodi:role="line"
         id="tspan415">EIXOS</tspan></text>
<text
       transform="matrix(1,0,0,-1,129.735,371.257)"
       style="font-variant:normal;font-weight:bold;font-stretch:normal;font-size:14px;font-family:Apercu;-inkscape-font-specification:Apercu-Bold;writing-mode:lr-tb;fill:#ffffff;fill-opacity:1;fill-rule:nonzero;stroke:none"
       id="text431"><tspan
         x="0 10.332 20.719999 28.966 36.834 45.556 55.411999"
         y="0"
         sodipodi:role="line"
         id="tspan419">GOVERN </tspan><tspan
         x="0.96600002 5.3060002 8.7779999 18.48 22.722 32.466 39.396 46.970001"
         y="16.002001"
         sodipodi:role="line"
         id="tspan421">I CIUTAT</tspan><tspan
         x="-5.7259998 2.3239999 13.034 21.462 30.184 38.234001 45.584 53.633999 61.152"
         y="48.006001"
         sodipodi:role="line"
         id="tspan423">EMPRESES </tspan><tspan
         x="-6.006 -1.666 1.806 9.6739998 19.726 27.398001 31.934 38.863998 46.438 53.914001 61.431999"
         y="64.008003"
         sodipodi:role="line"
         id="tspan425">I ENTITATS </tspan><tspan
         x="-0.126 7.4899998 18.240601 27.944 32.116001 40.601398 48.034"
         y="80.010002"
         sodipodi:role="line"
         id="tspan427">SOCIALS</tspan><tspan
         x="-11.802 -2.0999999 2.142 11.886 18.816 27.299999 36.638 45.122002 54.459999 58.632"
         y="112.014"
         sodipodi:role="line"
         id="tspan429">CIUTADANIA</tspan></text>
<text
       transform="matrix(1,0,0,-1,388.2259,407.657)"
       style="font-variant:normal;font-weight:bold;font-stretch:normal;font-size:17px;font-family:Apercu;-inkscape-font-specification:Apercu-Bold;writing-mode:lr-tb;fill:#3c2dfa;fill-opacity:1;fill-rule:nonzero;stroke:none"
       id="text435"><tspan
         x="0 9.5539999 14.722 24.785999 37.553001"
         y="0"
         sodipodi:role="line"
         id="tspan433">EIXOS</tspan></text>
<text
       transform="matrix(1,0,0,-1,283.0902,371.257)"
       style="font-variant:normal;font-weight:bold;font-stretch:normal;font-size:12px;font-family:Apercu;-inkscape-font-specification:Apercu-Bold;writing-mode:lr-tb;fill:#ffffff;fill-opacity:1;fill-rule:nonzero;stroke:none"
       id="text447"><tspan
         x="0 8.9040003 16.115999 20.76 27.396 34.164001 37.104 42.167999 45.144001 51.924 58.967999 61.944 68.099998 75.167999 80.627998 87.251999 92.316002 99.360001 102.336 112.692 119.364 124.836 127.812 134.9028 142.1748 148.7988 154.41479 159.1188 162.0948 165.2148 168.1908 174.86279 181.72681 188.33881 191.5668 198.2028 205.2468 209.95081 212.9268 219.02161 226.16161 229.3416 232.5696 239.24159 245.2056 252.2496 256.95361"
         y="0"
         sodipodi:role="line"
         id="tspan437">Obtenir un govern més obert i efcient aplicant </tspan><tspan
         x="-0.132 4.5120001 11.436 18.048 25.044001 32.172001 35.459999 42.599998 48.875999 52.139999 58.307999 61.284 68.554802 75.178802 80.242798 83.218803 89.386803 92.362801 95.662804 101.8308 104.8068 109.5108 114.6468 120.6108 127.5468 133.0188 137.2308 144.2388 149.3028 159.6348 165.94679 172.55881 175.7856 182.96159 185.93761 189.0576 192.0336 195.3336 201.5016 204.4776 207.3336 214.16161 221.15759 228.2256 233.7576 240.0696 246.68159 249.9084"
         y="15.996"
         sodipodi:role="line"
         id="tspan439">tecnologia per a la transformació i la innovació</tspan><tspan
         x="3.9119999 12.18 18.851999 24.264 30.9 37.944 43.403999 50.532001 53.639999 60.408001 67.620003 73.620003 78.683998 81.660004 88.283997 91.620003 94.596001 99.239998 105.912 109.032 114.78 118.02 122.724 125.7 131.11079 138.3708 144.9828 148.2108 155.3868 161.42281 168.3468 175.05479 182.0988 189.0948 196.22279 206.4828 209.7108 216.3228 219.2988 226.2816 229.3416 235.6176 238.8576 243.63361 249.7056 253.0416"
         y="53.664001"
         sodipodi:role="line"
         id="tspan441">Desenvolupar el teixit socio-econòmic digital </tspan><tspan
         x="34.896 38.015999 40.992001 48.035999 54.708 57.683998 60.743999 63.312 70.236 76.944 84.059998 89.375999 92.472 97.860001 102.504 109.176 119.508 125.676 128.65199 135.84 139.84801 142.70399 149.532 156.528 163.59599 169.12801 175.44 182.052 185.27879 192.4548 195.4308 198.7188 205.97881 212.6508 218.72279 222.05881"
         y="69.660004"
         sodipodi:role="line"
         id="tspan443">i de l’ecosistema d’innovació local </tspan><tspan
         x="41.484001 48.383999 58.667999 65.940002 73.199997 80.244003 86.867996 92.003998 98.087997 108.444 115.08 122.124 126.828 129.804 136.84801 143.52 146.496 149.784 156.45599 161.92799 164.90401 172.1748 178.7988 183.86279 189.2748 196.3188 203.3148 209.9868"
         y="110.16"
         sodipodi:role="line"
         id="tspan445">Empoderament de les persones</tspan></text>
<g
       id="g449"
       transform="translate(253.3615,369.4253)"><path
         d="M 0,0 H -33.149"
         style="fill:none;stroke:#3c2dfa;stroke-width:3;stroke-linecap:butt;stroke-linejoin:miter;stroke-miterlimit:4;stroke-dasharray:none;stroke-opacity:1"
         id="path451"
         inkscape:connector-curvature="0" /></g><g
       id="g453"
       transform="translate(261.748,369.4253)"><path
         d="M 0,0 -13.888,5.054 V -5.054 Z"
         style="fill:#3c2dfa;fill-opacity:1;fill-rule:nonzero;stroke:none"
         id="path455"
         inkscape:connector-curvature="0" /></g><g
       id="g457"
       transform="translate(253.3615,314.5908)"><path
         d="M 0,0 H -33.149"
         style="fill:none;stroke:#3c2dfa;stroke-width:3;stroke-linecap:butt;stroke-linejoin:miter;stroke-miterlimit:4;stroke-dasharray:none;stroke-opacity:1"
         id="path459"
         inkscape:connector-curvature="0" /></g><g
       id="g461"
       transform="translate(261.748,314.5908)"><path
         d="M 0,0 -13.888,5.054 V -5.054 Z"
         style="fill:#3c2dfa;fill-opacity:1;fill-rule:nonzero;stroke:none"
         id="path463"
         inkscape:connector-curvature="0" /></g><g
       id="g465"
       transform="translate(253.3615,264.7168)"><path
         d="M 0,0 H -33.149"
         style="fill:none;stroke:#3c2dfa;stroke-width:3;stroke-linecap:butt;stroke-linejoin:miter;stroke-miterlimit:4;stroke-dasharray:none;stroke-opacity:1"
         id="path467"
         inkscape:connector-curvature="0" /></g><g
       id="g469"
       transform="translate(261.748,264.7168)"><path
         d="M 0,0 -13.888,5.054 V -5.054 Z"
         style="fill:#3c2dfa;fill-opacity:1;fill-rule:nonzero;stroke:none"
         id="path471"
         inkscape:connector-curvature="0" /></g></g></svg>