<?xml version="1.0" encoding="UTF-8" standalone="no"?>
<!-- Created with Inkscape (http://www.inkscape.org/) -->

<svg
   xmlns:dc="http://purl.org/dc/elements/1.1/"
   xmlns:cc="http://creativecommons.org/ns#"
   xmlns:rdf="http://www.w3.org/1999/02/22-rdf-syntax-ns#"
   xmlns:svg="http://www.w3.org/2000/svg"
   xmlns="http://www.w3.org/2000/svg"
   xmlns:sodipodi="http://sodipodi.sourceforge.net/DTD/sodipodi-0.dtd"
   xmlns:inkscape="http://www.inkscape.org/namespaces/inkscape"
   version="1.1"
   id="svg4356"
   xml:space="preserve"
   width="600.97205"
   height="635.22461"
   viewBox="0 0 600.97204 635.2246"
   sodipodi:docname="open-digit-p25-guides-ca.svg"
   inkscape:version="0.92.3 (2405546, 2018-03-11)"><metadata
     id="metadata4362"><rdf:RDF><cc:Work
         rdf:about=""><dc:format>image/svg+xml</dc:format><dc:type
           rdf:resource="http://purl.org/dc/dcmitype/StillImage" /><dc:title></dc:title></cc:Work></rdf:RDF></metadata><defs
     id="defs4360"><clipPath
       clipPathUnits="userSpaceOnUse"
       id="clipPath4374"><path
         d="M 0,841.89 H 595.276 V 0 H 0 Z"
         id="path4372"
         inkscape:connector-curvature="0" /></clipPath><clipPath
       clipPathUnits="userSpaceOnUse"
       id="clipPath4550"><path
         d="M 0,0 H 595.276 V 841.89 H 0 Z"
         id="path4548"
         inkscape:connector-curvature="0" /></clipPath></defs><sodipodi:namedview
     pagecolor="#ffffff"
     bordercolor="#666666"
     borderopacity="1"
     objecttolerance="10"
     gridtolerance="10"
     guidetolerance="10"
     inkscape:pageopacity="0"
     inkscape:pageshadow="2"
     inkscape:window-width="1280"
     inkscape:window-height="961"
     id="namedview4358"
     showgrid="false"
     fit-margin-top="0"
     fit-margin-left="0"
     fit-margin-right="0"
     fit-margin-bottom="0"
     inkscape:zoom="0.55"
     inkscape:cx="271.91454"
     inkscape:cy="459.99158"
     inkscape:window-x="-4"
     inkscape:window-y="-4"
     inkscape:window-maximized="1"
     inkscape:current-layer="g4364" /><g
     id="g4364"
     inkscape:groupmode="layer"
     inkscape:label="open-digit-p25-guides-ca"
     transform="matrix(1.3333333,0,0,-1.3333333,-124.93614,736.49305)"><text
       transform="matrix(1,0,0,-1,124.0982,466.6642)"
       style="font-variant:normal;font-weight:bold;font-stretch:normal;font-size:9px;font-family:Apercu;-inkscape-font-specification:Apercu-Bold;writing-mode:lr-tb;fill:#3c2dfa;fill-opacity:1;fill-rule:nonzero;stroke:none"
       id="text4436"><tspan
         x="0 6.7392001 12.4974 18.048599 20.7036 23.250601 28.8468 34.165798 36.712799 42.291 46.4562 51.503399 56.9646 60.807598 63.541801 69.066002 74.590202 79.909203 84.328201 86.875198 91.418404 96.924599 102.1986 107.7588 113.4171 116.1963 121.8645 126.8847 129.6189 135.1431 140.6673 145.9863"
         y="0"
         sodipodi:role="line"
         id="tspan4434">Codi de pràctiques Tecnològiques</tspan></text>
<text
       transform="matrix(1,0,0,-1,99.0782,454.6672)"
       style="font-variant:normal;font-weight:300;font-stretch:normal;font-size:9px;font-family:'Apercu Light';-inkscape-font-specification:Apercu-Light;writing-mode:lr-tb;fill:#000000;fill-opacity:1;fill-rule:nonzero;stroke:none"
       id="text4444"><tspan
         x="0 6.1938 11.5146 16.412399 18.592199 23.679001 28.7838 32.257801 34.660801 39.954601 45.057598 47.460602 52.250401 55.708199 58.212002 61.534801 66.567596 70.025398 72.340202 76.5252 78.9282 84.536102 89.568901 93.294899 95.697899 100.2087 102.3885 107.6373 113.0301 117.5589 121.2849 123.6879 129.3669 133.89571 137.52451 142.3773 147.50909 149.69791 155.01871 160.2135 164.9025 167.3055 171.99451 174.39751 178.4763 183.60809 185.79691 190.9557 195.8427"
         y="0"
         sodipodi:role="line"
         id="tspan4438">Conjunt de criteris per ajudar Barcelona a selec-</tspan><tspan
         x="-2.934 1.6668 4.1346002 9.4554005 14.6502 19.179001 22.905001 25.308001 27.496799 32.5476 36.732601 39.135601 42.458401 47.617199 52.424999 57.691799 62.877602 65.066399 70.324203 74.790001 77.302803 82.3536 86.538597 88.941597 94.136398 99.745201 104.778 108.8109 112.1337 117.1845 121.3695 123.7725 128.28329 133.6311 137.2599 142.5807 147.8745 150.26131 154.9881 160.28191 165.3327 169.5177 171.9207 174.5757 176.9787 182.27251 187.3755 192.35249 197.2323 199.4301 203.0211"
         y="11.997"
         sodipodi:role="line"
         id="tspan4440">cionar les tecnologies obertes apropiades i defnir </tspan><tspan
         x="-3.7260001 1.1267999 6.4116001 14.0184 19.366199 22.995001 28.2798 35.760601 38.075401 42.118198 47.421001 51.605999 54.008999 59.0238 64.342796 66.745796 68.871597 73.8144 77.999397"
         y="23.993999"
         sodipodi:role="line"
         id="tspan4442">compromisos en lús </tspan></text>
<text
       transform="matrix(1,0,0,-1,179.4806,430.6732)"
       style="font-variant:normal;font-weight:bold;font-stretch:normal;font-size:9px;font-family:Apercu;-inkscape-font-specification:Apercu-Bold;writing-mode:lr-tb;fill:#3c2dfa;fill-opacity:1;fill-rule:nonzero;stroke:none"
       id="text4452"><tspan
         x="0 5.6160002 7.7652001 12.9942 17.2584 21.063601 25.7598 31.23 36.763199 41.486401 45.5256 51.141602 55.4706 57.927601 63.469799 69.147003 74.338203 78.773399 82.526398 86.556602 90.048599 92.5056 94.870796 100.3788 104.085 109.2762 113.3163 118.9233"
         y="0"
         sodipodi:role="line"
         id="tspan4446">d’estàndards oberts, intero-</tspan><tspan
         x="-62.0424 -56.3652 -51.174 -47.098801 -42.330601 -36.770401 -34.252201 -31.643999 -28.990801 -25.1856 -20.2824 -16.6392 -13.1472 -10.6902 -6.408 -1.179 3.7781999 9.0503998 13.0896 18.442801 22.247999 27.151199 30.9042 33.361198 35.926201 38.383202 42.1362 46.211399 50.9076 56.332802 60.6618 66.293999 71.017197 75.056396 80.256599 85.726799 90.910797 93.582001 98.432999"
         y="11.997"
         sodipodi:role="line"
         id="tspan4448">perabilitat, seguretat i trànsparència.</tspan><tspan
         x="175.5036 182.4066 187.8768 190.638 195.57899 198.12601 203.7222 209.0412 211.5882 216.9324 222.5916 230.6178 236.196 240.36121 245.3022 247.8492 253.5273 258.87061 264.53879 267.237 269.97119 275.28839 280.2294 282.7764 288.37259 293.69159 296.23859 300.03479 305.54099 310.815 316.37521 322.03439 324.8136 330.48181 335.50201 338.26321"
         y="-48.050999"
         sodipodi:role="line"
         id="tspan4450">Guia de compra pública de tecnologia</tspan></text>
<text
       transform="matrix(1,0,0,-1,333.8072,466.7272)"
       style="font-variant:normal;font-weight:300;font-stretch:normal;font-size:9px;font-family:'Apercu Light';-inkscape-font-specification:Apercu-Light;writing-mode:lr-tb;fill:#000000;fill-opacity:1;fill-rule:nonzero;stroke:none"
       id="text4460"><tspan
         x="0 5.8698001 8.1576004 11.8764 17.1252 22.23 25.678801 29.226601 31.9716 37.094398 41.3694 43.8624 49.561199 54.683998 58.5 60.993 65.161797 70.383598 72.662399 77.911201 82.853996 87.5448 90.1026 95.513397 100.7982 105.417 109.233 111.726 115.8588 121.1355 123.3513 128.69009 133.38091 135.93871 141.3495 146.4543 150.72929 153.22231 158.60609 163.7991 166.2921 169.7049 174.9537 179.8515 185.2083 190.4841 192.76289 198.1107 202.6665 205.1433 209.6973"
         y="0"
         sodipodi:role="line"
         id="tspan4454">Directrius per seleccionar solucions de tecnologia </tspan><tspan
         x="6.9029999 8.9837999 10.9476 13.6926 18.752399 22.471201 27.6642 30.1572 32.902199 35.395199 40.68 46.378799 51.501598 55.625401 59.119202 63.898201 66.391197 69.1362 71.629204 76.850998 79.102798 83.3778 85.870796 90.039597 95.162399 99.088203 103.293 108.4698 111.2148 113.7078 117.1206 122.3694 127.2672 132.62399 137.8998 140.1786 145.5273 150.0831 152.6859 157.6629 161.9379 164.43089 169.2477 174.6315 179.88029 185.2551 190.5309 195.25771 198.73351 202.78349"
         y="11.997"
         sodipodi:role="line"
         id="tspan4456">lliure i oberta i els servei tecnològics adequats </tspan><tspan
         x="5.526 11.2248 16.3458 20.163601"
         y="23.993999"
         sodipodi:role="line"
         id="tspan4458">per </tspan></text>
<text
       transform="matrix(1,0,0,-1,356.4692,442.7332)"
       style="font-variant:normal;font-weight:bold;font-stretch:normal;font-size:9px;font-family:Apercu;-inkscape-font-specification:Apercu-Bold;writing-mode:lr-tb;fill:#000000;fill-opacity:1;fill-rule:nonzero;stroke:none"
       id="text4464"><tspan
         x="0 5.2902002 9.7524004 12.4056 16.2108 20.934 24.957001 27.414 32.605202 35.332199 37.7892 43.000198 47.318401 52.5186 57.9888 63.494999 68.974197 72.9972 75.454201 78.143402 83.8116 88.804802 93.862801 98.614799 100.98"
         y="0"
         sodipodi:role="line"
         id="tspan4462">evitar el “vendor lock-in</tspan></text>
<text
       transform="matrix(1,0,0,-1,462.9572,442.7332)"
       style="font-variant:normal;font-weight:300;font-stretch:normal;font-size:9px;font-family:'Apercu Light';-inkscape-font-specification:Apercu-Light;writing-mode:lr-tb;fill:#000000;fill-opacity:1;fill-rule:nonzero;stroke:none"
       id="text4472"><tspan
         x="0 3.987 6.48 11.9178 15.6366 21.0294 25.189199 30.761999 35.6688 40.395599 43.959599 46.452599 52.151402 57.2742 61.090199 63.583199 65.862 71.0028 75.052803"
         y="0"
         sodipodi:role="line"
         id="tspan4466">” provocat per les </tspan><tspan
         x="-124.983 -120.8502 -115.5744 -113.3586 -108.0216 -103.3308 -100.773 -95.363998 -90.259201 -85.982399 -83.489403 -78.051598 -74.332802 -68.923798 -63.540001 -60.937199 -55.7784 -52.2864 -47.667599 -44.119801 -41.516998 -36.376202 -32.0994 -29.6064 -26.8596 -24.3666 -22.087799 -16.947001 -12.6702 -10.1772 -5.5584002 -1.8396 3.5352001 8.5769997 11.1708 14.5836 19.832399 24.937201 28.35 33.409801 37.128601 42.269402 46.5462 49.0392 52.5312 57.123001 62.452801 67.357803 72.153"
         y="11.997"
         sodipodi:role="line"
         id="tspan4468">solucions propietàries i les arquitectures tanca-</tspan><tspan
         x="-32.769001 -27.385201 -22.2444 -18.392401"
         y="23.993999"
         sodipodi:role="line"
         id="tspan4470">des.</tspan></text>
<text
       transform="matrix(1,0,0,-1,158.3252,308.0842)"
       style="font-variant:normal;font-weight:bold;font-stretch:normal;font-size:9px;font-family:Apercu;-inkscape-font-specification:Apercu-Bold;writing-mode:lr-tb;fill:#3c2dfa;fill-opacity:1;fill-rule:nonzero;stroke:none"
       id="text4476"><tspan
         x="0 6.3972001 8.9153996 13.0446 18.5508 24.011999 27.855 30.51 34.972198 39.9132 42.460201 48.0564 53.375401 55.922401 61.545601 66.592796 72.189003 77.508003"
         y="0"
         sodipodi:role="line"
         id="tspan4474">Directiva de dades</tspan></text>
<text
       transform="matrix(1,0,0,-1,92.8232,296.0872)"
       style="font-variant:normal;font-weight:300;font-stretch:normal;font-size:9px;font-family:'Apercu Light';-inkscape-font-specification:Apercu-Light;writing-mode:lr-tb;fill:#000000;fill-opacity:1;fill-rule:nonzero;stroke:none"
       id="text4482"><tspan
         x="0 5.4917998 9.3906002 14.9814 20.860201 26.433001 30.7458 34.419601 39.378601 42.051601 47.929501 53.2323 57.228298 59.901299 64.860298 67.533302 69.938103 74.897102 77.570099 82.368896 87.689697 92.002502 95.388298 98.171997 103.833 106.506 112.0698 117.4428 120.1158 122.5746 127.8954 132.3504 135.02341 140.6871 145.6839 151.2468 156.5676 161.0226 163.6956 169.2594 174.6324 177.3054 179.71021 184.6692 187.34219 192.2139 195.1389 200.67661 204.3504 209.2563 212.59531"
         y="0"
         sodipodi:role="line"
         id="tspan4478">Proposta per a la gestió de les dades de la ciutat </tspan><tspan
         x="7.8299999 12.6648 20.379601 26.166599 28.8396 31.2444 36.2034"
         y="11.997"
         sodipodi:role="line"
         id="tspan4480">amb la </tspan></text>
<text
       transform="matrix(1,0,0,-1,131.6996,284.0902)"
       style="font-variant:normal;font-weight:bold;font-stretch:normal;font-size:9px;font-family:Apercu;-inkscape-font-specification:Apercu-Bold;writing-mode:lr-tb;fill:#000000;fill-opacity:1;fill-rule:nonzero;stroke:none"
       id="text4488"><tspan
         x="0 5.6682 9.8873997 15.6546 21.3948 24.219 29.752199 33.7374 38.820599 42.643799 46.3158 48.952801 51.831902 56.8629 59.499901 65.168098 69.522301 72.267303 76.819504 81.956703 87.320702 90.1539 94.139099 99.222298 103.0455 106.7175 109.3545 112.2327 117.2637 119.9007 124.3629 130.0851 135.8253 138.4335 142.68871 147.564 153.0432 155.89439 160.9254 163.56239 165.9024"
         y="0"
         sodipodi:role="line"
         id="tspan4484">propietat, la privacitat, la sobirania i </tspan><tspan
         x="-33.296398 -30.3894 -27.6444 -22.1742 -17.665199 -15.0282 -9.4949999 -5.5619998 -2.7377999 2.6262 5.2631998 8.0081997 10.6452 13.5234 18.554399 21.191401 23.736601 29.260799 34.910999 40.6152 45.1674 50.3046 55.668598 58.492802"
         y="11.997"
         sodipodi:role="line"
         id="tspan4486">l´ùs ètic i la innovació</tspan></text>
<text
       transform="matrix(1,0,0,-1,195.9794,272.0932)"
       style="font-variant:normal;font-weight:300;font-stretch:normal;font-size:9px;font-family:'Apercu Light';-inkscape-font-specification:Apercu-Light;writing-mode:lr-tb;fill:#000000;fill-opacity:1;fill-rule:nonzero;stroke:none"
       id="text4496"><tspan
         x="0 2.9628 5.6357999 11.9736 17.3214 20.804399 23.380199 28.899 34.255798 37.038601 42.197399 44.870399 47.113201 49.994999 54.7938 58.6926 64.247398 69.4692 72.241203 75.832199 81.261002 86.545799 90.136803 95.376602 99.320396 103.8744"
         y="0"
         sodipodi:role="line"
         id="tspan4490">. Defineic l’arquitectura </tspan><tspan
         x="-92.464203 -86.900398 -81.527397 -78.854401 -73.191597 -68.194801 -62.631001 -57.3102 -52.855202 -50.182201 -47.257198 -44.584202 -42.179401 -37.220402 -34.547401 -31.9716 -26.6688 -23.417999 -19.474199 -14.4774 -9.1566 -4.8438001 -1.215 2.8188 8.3375998 13.6224 17.2143 22.4541 26.3979 31.356899 34.0299 39.5937 44.966702 47.639702 53.302502 58.299301 63.863098 69.183899 73.638901 76.311897 82.190697 87.4935 91.489502 94.162498 98.716499"
         y="11.997"
         sodipodi:role="line"
         id="tspan4492">de dades i la infraestructura de dades per a </tspan><tspan
         x="-34.945202 -28.996201 -24.197399 -20.298599 -15.1758 -9.7740002 -7.3151999 -1.7244 3.7404001 8.6993999 11.3724 17.422199 20.079 24.8148 27.5886 31.2624 36.061199 38.662201"
         y="23.993999"
         sodipodi:role="line"
         id="tspan4494">Barcelona Digital.</tspan></text>
<text
       transform="matrix(1,0,0,-1,380.4542,305.7262)"
       style="font-variant:normal;font-weight:bold;font-stretch:normal;font-size:9px;font-family:Apercu;-inkscape-font-specification:Apercu-Bold;writing-mode:lr-tb;fill:#3c2dfa;fill-opacity:1;fill-rule:nonzero;stroke:none"
       id="text4500"><tspan
         x="0 6.651 12.3192 17.9172 20.464199 28.5273 33.3396 37.4688 42.742802 45.289799 50.886002 56.205002 58.751999 64.096199 69.692398 75.290398 79.1334 83.297699 88.344902 93.806099 97.701302 102.7485 108.0225 110.7567"
         y="0"
         sodipodi:role="line"
         id="tspan4498">Nou marc de contractació</tspan></text>
<text
       transform="matrix(1,0,0,-1,332.8532,293.7292)"
       style="font-variant:normal;font-weight:300;font-stretch:normal;font-size:9px;font-family:'Apercu Light';-inkscape-font-specification:Apercu-Light;writing-mode:lr-tb;fill:#000000;fill-opacity:1;fill-rule:nonzero;stroke:none"
       id="text4506"><tspan
         x="0 6.1578002 11.2806 15.1614 19.670401 21.8934 26.7642 30.627001 33.805801 37.299599 41.756401 44.8992 49.707001 53.992802 56.2005 60.709499 62.932499 68.046303 72.969299 75.192299 79.865997 85.006798 89.931602 93.110397 96.604202 101.151 105.9858 109.2096 113.7564 118.1772 120.51 125.721 127.944 133.0578 137.9808 140.2038 143.3466 148.32539 152.9532 158.03999 163.04581 165.0546 170.1324 174.4182 176.625 181.134 183.35699 188.65981 193.07159 196.99741 201.5442 206.7579 211.3119"
         y="0"
         sodipodi:role="line"
         id="tspan4502">Nova estratègia de contractació de tecnologia basada </tspan><tspan
         x="0.94499999 5.7797999 10.9188 13.1418 18.048599 23.187599 25.410601 29.957399 34.630199 39.599998 43.048801 48.385799 50.608799 55.945801 58.375801 63.534599 68.639397 76.201202 81.207001 83.216698 88.294502 92.750397 97.298103 101.718 104.0517 109.1295 111.6405 113.8635 118.9413 121.2831 125.1369 130.3479 132.57091 137.99969 142.85249 146.28329 153.84509 158.7339 161.9127 165.40649 169.9155"
         y="11.997"
         sodipodi:role="line"
         id="tspan4504">en un acord d’homologació. Això permetrà </tspan></text>
<text
       transform="matrix(1,0,0,-1,504.9917,281.7322)"
       style="font-variant:normal;font-weight:bold;font-stretch:normal;font-size:9px;font-family:Apercu;-inkscape-font-specification:Apercu-Bold;writing-mode:lr-tb;fill:#000000;fill-opacity:1;fill-rule:nonzero;stroke:none"
       id="text4512"><tspan
         x="0 5.184 7.8281999 13.0122 15.7014 20.930401 25.259399 27.7164 33.222599 38.226601"
         y="0"
         sodipodi:role="line"
         id="tspan4508">cicles de </tspan><tspan
         x="-161.8065 -156.55231 -150.98309 -143.04691 -137.5569 -133.4817"
         y="14.004"
         sodipodi:role="line"
         id="tspan4510">compra</tspan></text>
<text
       transform="matrix(1,0,0,-1,378.5822,267.7282)"
       style="font-variant:normal;font-weight:300;font-stretch:normal;font-size:9px;font-family:'Apercu Light';-inkscape-font-specification:Apercu-Light;writing-mode:lr-tb;fill:#000000;fill-opacity:1;fill-rule:nonzero;stroke:none"
       id="text4516"><tspan
         x="0 7.5618 12.4326 16.437599 18.660601 23.583599 28.3806 32.801399 35.134201 39.969002 44.893799 48.099602 52.104599 54.327599 56.802601 59.0256 62.4744 67.453201 72.486 77.257797 79.275597 82.769402 87.278397 89.501404 94.453201 96.604202 98.827202 102.105 104.2398 108.1026 112.8096 115.0326 120.2004 123.6501 128.7729 132.7077 137.6136 139.9203 145.0341 150.00391 152.6787"
         y="0"
         sodipodi:role="line"
         id="tspan4514">més efcients i reduirà el risc proveïdor.</tspan></text>
<text
       transform="matrix(1,0,0,-1,136.4282,126.5002)"
       style="font-variant:normal;font-weight:bold;font-stretch:normal;font-size:9px;font-family:Apercu;-inkscape-font-specification:Apercu-Bold;writing-mode:lr-tb;fill:#3c2dfa;fill-opacity:1;fill-rule:nonzero;stroke:none"
       id="text4520"><tspan
         x="0 5.4899998 9.8442001 13.7394 18.5256 24.0858 29.709 34.522202 38.651402 44.357399 46.9044 52.500599 57.819599 60.3666 64.7388 70.019997 74.572197 78.9804 84.2994 86.934601 91.3536 93.900597 99.451797 102.06 107.0802 109.8234 113.7186 118.5858 121.293"
         y="0"
         sodipodi:role="line"
         id="tspan4518">Estàndard de serveis digitals</tspan></text>
<text
       transform="matrix(1,0,0,-1,96.8102,114.5032)"
       style="font-variant:normal;font-weight:300;font-stretch:normal;font-size:9px;font-family:'Apercu Light';-inkscape-font-specification:Apercu-Light;writing-mode:lr-tb;fill:#000000;fill-opacity:1;fill-rule:nonzero;stroke:none"
       id="text4528"><tspan
         x="0 6.3737998 11.8746 16.9524 19.312201 24.579 29.8638 33.517799 36.1008 41.5746 46.857601 49.440601 54.4104 58.048199 60.731998 64.234802 69.447601 73.085403 75.5802 79.945198 82.528198 88.317001 93.5289 97.434898 100.0179 104.7087 107.0685 112.4973 118.0701 122.7789 126.6849 129.2679 135.12691 139.83569 143.6445 148.67731 153.98911 156.35699 161.8578 167.23351 172.10249 174.6855 179.5545 182.1375 187.1073 190.91611 196.29089 200.99969 204.5907"
         y="0"
         sodipodi:role="line"
         id="tspan4522">Conjunt de criteris per ajudar Barcelona a crear </tspan><tspan
         x="-2.421 0.414 2.997 7.7058001 12.9366 17.159401 20.4552 23.103001 28.6038 33.9786 38.687401 42.593399 45.176399 49.4352 54.647999 58.663799 62.958599 68.225403 70.7202 75.085197 77.668198 82.926003 85.492798 90.138603 92.822403 96.406197 101.1141 103.4559 107.8209 110.4039 115.2657 119.9115 122.3433 124.6851 128.62891 131.49989 134.0829 139.4577 141.7995 146.16451 148.7475 153.0063 158.2182 162.23399 166.52879 171.79559 174.29041 178.6554 183.8214 188.0802 193.293 197.1468 201.8286 207.0117"
         y="11.997"
         sodipodi:role="line"
         id="tspan4524">i gestionar serveis digitals àgils. Els serveis seran </tspan><tspan
         x="43.326 48.358799 53.8596 59.054401 63.097198 65.592003 69.814796 73.317596 78.512398 83.797203 87.362099 91.727097 94.310097 97.145103 99.728104 105.4251 108.2151 112.9239 115.3917 118.9755 123.8445 126.4275 131.8923 137.2581 141.9669 144.02071 146.7036 150.2874 155.1042 158.724"
         y="23.993999"
         sodipodi:role="line"
         id="tspan4526">consistents i d’alta qualitat.</tspan></text>
<text
       transform="matrix(1,0,0,-1,365.8562,125.7982)"
       style="font-variant:normal;font-weight:bold;font-stretch:normal;font-size:9px;font-family:Apercu;-inkscape-font-specification:Apercu-Bold;writing-mode:lr-tb;fill:#3c2dfa;fill-opacity:1;fill-rule:nonzero;stroke:none"
       id="text4532"><tspan
         x="0 5.6430001 8.4312 13.3722 15.9192 21.5154 26.8344 29.381399 34.698601 39.583801 45.306 50.353199 55.627201 58.370399 62.264702 67.311897 72.585899 75.320099 81.017097 83.564102 86.219101 88.766098 94.110298 99.706497 105.3045 109.1475 113.3127 118.3599 123.8202 127.7154 132.7626 138.03661 140.7708"
         y="0"
         sodipodi:role="line"
         id="tspan4530">Pla de capacitació i contractació</tspan></text>
<text
       transform="matrix(1,0,0,-1,340.6292,113.8012)"
       style="font-variant:normal;font-weight:300;font-stretch:normal;font-size:9px;font-family:'Apercu Light';-inkscape-font-specification:Apercu-Light;writing-mode:lr-tb;fill:#000000;fill-opacity:1;fill-rule:nonzero;stroke:none"
       id="text4542"><tspan
         x="0 5.5818 9.5705996 14.9796 20.6784 26.071199 30.204 33.695999 38.476799 40.969799 46.668598 51.7896 55.607399 58.100399 63.4842 68.625 72.7938 77.898598 83.309402 87.4692 92.745003 94.9608 100.1466 105.7194 110.3382 114.156 116.649 121.554 126.1548 131.7276 136.5444 141.2352 143.82899 147.321 152.04781 155.52361 159.8004 162.2934 164.68919 169.884 173.2968 178.4178 182.0376 187.3746 192.5154 196.5654"
         y="0"
         sodipodi:role="line"
         id="tspan4534">Proposta per desenvolupar capacitats internes </tspan><tspan
         x="-6.9569998 -1.5822001 3.7565999 8.9496002 11.4426 15.7176 18.417601 23.0184 25.2882 30.410999 34.5438 37.7505 40.146301 45.555302 48.048302 52.827301 55.320301 57.599098 62.739899 67.0149 69.507896 74.414703 79.015503 84.588303 89.405098 94.095901 96.689697 100.1835 104.9103 108.3861 112.6611 115.1541 118.8729 124.1217 129.49651 134.8353 139.9581 143.50591 146.0817 151.4655 156.60629 160.8813 163.3743 169.0722 174.19501 178.011 180.504 185.7627 188.96761 194.09039 197.6382 199.92599 203.517"
         y="11.997"
         sodipodi:role="line"
         id="tspan4536">que s’ajustin a les capacitats requerides per oferir </tspan><tspan
         x="-0.78299999 4.4387999 6.6905999 10.9656 13.4586 17.627399 22.7502 26.676001 30.8808 36.057598 38.462399 42.7374 45.2304 50.398201 52.875 57.430801 60.024601 63.518398 68.137199 70.389 74.664001 77.156998 79.902 82.394997 87.5718 92.980797 95.473801 100.5795 105.7014 108.8451 114.4179 119.3247 123.9795 131.81129 136.91611 142.1109 145.6749 148.16789 153.5517 158.74471 161.2377 166.93649 172.0593 175.6971 179.8299 185.24071 190.5255 195.1443 197.3403"
         y="23.993999"
         sodipodi:role="line"
         id="tspan4538">els serveis digitals i un enfocament de personal </tspan><tspan
         x="4.8060002 10.5048 15.6276 19.4436 21.9366 26.618401 30.616199 34.785 39.862801 44.5536 49.6134 53.377201 57.995998 61.812 64.305 69.660896 75.054604 79.259399 84.4002 88.675201 91.168198 96.533997 101.1078 106.4466 108.7884 110.7522 113.346 116.8398 121.5666 125.0424 129.3174 131.81039 136.5894 139.0824 144.03419 149.09399 153.2178 156.7818 159.2748 162.68761 167.81039 171.5112 179.082 181.4778 186.4476 189.1926"
         y="35.991001"
         sodipodi:role="line"
         id="tspan4540">per assegurar noves habilitats a curt termini.</tspan></text>
<g
       id="g4544"><g
         id="g4546"
         clip-path="url(#clipPath4550)"><g
           id="g4552"
           transform="translate(202.5822,531.4708)"><path
             d="m 0,0 v 7.001 h -2.821 c -0.314,1.567 -0.941,3.03 -1.777,4.389 l 1.986,1.985 -4.912,4.912 -1.985,-1.986 c -1.359,0.836 -2.822,1.463 -4.389,1.777 v 2.821 h -7.001 v -2.821 c -1.568,-0.314 -3.031,-0.941 -4.389,-1.777 l -1.985,1.986 -4.912,-4.912 1.986,-1.985 c -0.836,-1.359 -1.463,-2.822 -1.777,-4.389 h -2.821 V 0 h 2.821 c 0.314,-1.568 0.941,-3.031 1.777,-4.389 l -1.986,-1.985 4.912,-4.912 1.985,1.986 c 1.358,-0.836 2.821,-1.463 4.389,-1.777 v -2.821 h 7.001 v 2.821 c 1.567,0.314 3.03,0.941 4.389,1.777 l 1.985,-1.986 4.912,4.912 -1.986,1.985 c 0.836,1.358 1.463,2.821 1.777,4.389 z m -17.346,-4.493 c -4.389,0 -8.047,3.552 -8.047,8.046 0,4.389 3.553,8.046 8.047,8.046 4.493,0 8.046,-3.553 8.046,-8.046 -0.105,-4.494 -3.658,-8.046 -8.046,-8.046"
             style="fill:#3c2dfa;fill-opacity:1;fill-rule:nonzero;stroke:none"
             id="path4554"
             inkscape:connector-curvature="0" /></g><g
           id="g4556"
           transform="translate(230.4827,503.5702)"><path
             d="m 0,0 v 7.001 h -2.821 c -0.314,1.568 -0.941,3.031 -1.777,4.389 l 1.986,1.985 -4.912,4.912 -1.985,-1.986 c -1.358,0.836 -2.822,1.463 -4.389,1.777 v 2.821 h -7.001 v -2.821 c -1.568,-0.314 -3.031,-0.941 -4.389,-1.777 l -1.985,1.986 -4.912,-4.912 1.986,-1.985 c -0.836,-1.358 -1.463,-2.821 -1.777,-4.389 h -2.821 V 0 h 2.821 c 0.314,-1.568 0.941,-3.03 1.777,-4.389 l -1.986,-1.985 4.912,-4.912 1.985,1.986 c 1.358,-0.836 2.821,-1.463 4.389,-1.777 v -2.821 h 7.001 v 2.821 c 1.567,0.314 3.03,0.941 4.389,1.777 l 1.985,-1.986 4.912,4.912 -1.986,1.985 c 0.836,1.359 1.463,2.821 1.777,4.389 z m -17.451,-4.493 c -4.389,0 -8.046,3.553 -8.046,8.046 0,4.493 3.553,8.046 8.046,8.046 4.493,0 8.046,-3.553 8.046,-8.046 0,-4.493 -3.553,-8.046 -8.046,-8.046"
             style="fill:#3c2dfa;fill-opacity:1;fill-rule:nonzero;stroke:none"
             id="path4558"
             inkscape:connector-curvature="0" /></g><g
           id="g4560"
           transform="translate(199.1338,385.2166)"><path
             d="m 0,0 c -15.379,0 -27.847,-12.467 -27.847,-27.847 0,-15.379 12.468,-27.846 27.847,-27.846 15.379,0 27.847,12.467 27.847,27.846 C 27.847,-12.467 15.379,0 0,0 m 3.345,-46.336 h -6.457 v 26.245 h 6.457 z m -3.229,29.629 c -2.395,0 -4.166,1.822 -4.166,4.165 0,2.344 1.771,4.166 4.166,4.166 2.396,0 4.166,-1.822 4.166,-4.166 0,-2.343 -1.77,-4.165 -4.166,-4.165"
             style="fill:#3c2dfa;fill-opacity:1;fill-rule:nonzero;stroke:none"
             id="path4562"
             inkscape:connector-curvature="0" /></g><g
           id="g4564"
           transform="translate(215.4591,199.1458)"><path
             d="m 0,0 h -33.928 c -5.168,0 -9.396,-4.228 -9.396,-9.396 v -33.928 c 0,-5.168 4.228,-9.395 9.396,-9.395 H 0 c 5.168,0 9.396,4.227 9.396,9.395 V -9.396 C 9.396,-4.228 5.168,0 0,0 m -31.15,-41.243 c -1.779,0 -3.163,1.344 -3.163,3.162 0,1.819 1.384,3.164 3.163,3.164 1.779,0 3.163,-1.345 3.163,-3.164 0,-1.818 -1.384,-3.162 -3.163,-3.162 m 0,11.72 c -1.779,0 -3.163,1.345 -3.163,3.163 0,1.819 1.384,3.163 3.163,3.163 1.779,0 3.163,-1.344 3.163,-3.163 0,-1.818 -1.384,-3.163 -3.163,-3.163 m 0,11.721 c -1.779,0 -3.163,1.344 -3.163,3.162 0,1.819 1.384,3.164 3.163,3.164 1.779,0 3.163,-1.345 3.163,-3.164 0,-1.818 -1.384,-3.162 -3.163,-3.162 m 29.571,-22.729 h -19.924 v 4.902 h 19.924 z m 0,11.72 h -19.924 v 4.902 h 19.924 z m 0,11.721 h -19.924 v 4.902 h 19.924 z"
             style="fill:#3c2dfa;fill-opacity:1;fill-rule:nonzero;stroke:none"
             id="path4566"
             inkscape:connector-curvature="0" /></g><g
           id="g4568"
           transform="translate(451.4205,499.8385)"><path
             d="m 0,0 c -1.876,0 -3.397,-1.52 -3.397,-3.397 0,-1.876 1.521,-3.397 3.397,-3.397 1.876,0 3.397,1.521 3.397,3.397 C 3.397,-1.52 1.876,0 0,0 m -26.339,0 c -1.876,0 -3.397,-1.52 -3.397,-3.397 0,-1.876 1.521,-3.397 3.397,-3.397 1.876,0 3.397,1.521 3.397,3.397 0,1.877 -1.521,3.397 -3.397,3.397 m 36.732,11.74 9.485,27.8 h -50.159 l -2.744,8.403 h -14.509 l 1.43,-5.006 h 9.447 L -26.956,13.236 -30.467,1.877 H 6.948 l 1.43,5.006 h -32.189 l 1.703,4.857 z"
             style="fill:#3c2dfa;fill-opacity:1;fill-rule:nonzero;stroke:none"
             id="path4570"
             inkscape:connector-curvature="0" /></g><g
           id="g4572"
           transform="translate(415.7213,173.5046)"><path
             d="m 0,0 c 0,9.735 6.36,18.237 15.511,21.027 v -5.386 l 9.216,6.749 -9.281,6.685 V 24.337 C 4.543,21.417 -3.18,11.552 -3.18,0 c 0,-11.357 7.658,-21.287 18.561,-24.272 l 0.844,3.05 C 6.685,-18.626 0,-9.93 0,0"
             style="fill:#3c2dfa;fill-opacity:1;fill-rule:nonzero;stroke:none"
             id="path4574"
             inkscape:connector-curvature="0" /></g><g
           id="g4576"
           transform="translate(444.0822,197.5173)"><path
             d="m 0,0 -0.844,-3.05 c 9.541,-2.596 16.225,-11.358 16.225,-21.222 0,-9.735 -6.36,-18.237 -15.446,-21.028 v 5.387 l -9.216,-6.685 9.216,-6.749 v 4.737 c 10.903,2.921 18.626,12.786 18.626,24.273 C 18.561,-12.915 10.903,-2.985 0,0"
             style="fill:#3c2dfa;fill-opacity:1;fill-rule:nonzero;stroke:none"
             id="path4578"
             inkscape:connector-curvature="0" /></g><g
           id="g4580"
           transform="translate(442.1353,173.1931)"><path
             d="m 0,0 c 0,2.509 -2.034,4.543 -4.543,4.543 -2.509,0 -4.543,-2.034 -4.543,-4.543 0,-2.509 2.034,-4.543 4.543,-4.543 C -2.034,-4.543 0,-2.509 0,0"
             style="fill:#3c2dfa;fill-opacity:1;fill-rule:nonzero;stroke:none"
             id="path4582"
             inkscape:connector-curvature="0" /></g></g></g><g
       id="g4584"
       transform="translate(417.6451,377.5901)"><path
         d="M 0,0 -7.749,-13.814 H 7.749 Z"
         style="fill:#3c2dfa;fill-opacity:1;fill-rule:nonzero;stroke:none"
         id="path4586"
         inkscape:connector-curvature="0" /></g><g
       id="g4588"
       transform="translate(430.6779,363.7761)"><path
         d="M 0,0 7.749,13.814 H -7.749 Z"
         style="fill:#3c2dfa;fill-opacity:1;fill-rule:nonzero;stroke:none"
         id="path4590"
         inkscape:connector-curvature="0" /></g><g
       id="g4592"
       transform="translate(444.5068,377.5901)"><path
         d="M 0,0 -7.749,-13.814 H 7.749 Z"
         style="fill:#3c2dfa;fill-opacity:1;fill-rule:nonzero;stroke:none"
         id="path4594"
         inkscape:connector-curvature="0" /></g><g
       id="g4596"
       transform="translate(457.5396,363.7761)"><path
         d="M 0,0 7.749,13.814 H -7.749 Z"
         style="fill:#3c2dfa;fill-opacity:1;fill-rule:nonzero;stroke:none"
         id="path4598"
         inkscape:connector-curvature="0" /></g><g
       id="g4600"
       transform="translate(417.6451,345.3317)"><path
         d="M 0,0 -7.749,13.814 H 7.749 Z"
         style="fill:#3c2dfa;fill-opacity:1;fill-rule:nonzero;stroke:none"
         id="path4602"
         inkscape:connector-curvature="0" /></g><g
       id="g4604"
       transform="translate(430.6779,359.1458)"><path
         d="M 0,0 7.749,-13.814 H -7.749 Z"
         style="fill:#3c2dfa;fill-opacity:1;fill-rule:nonzero;stroke:none"
         id="path4606"
         inkscape:connector-curvature="0" /></g><g
       id="g4608"
       transform="translate(444.5068,345.4557)"><path
         d="M 0,0 -7.645,13.629 H 7.645 Z"
         style="fill:none;stroke:#3c2dfa;stroke-width:1.403;stroke-linecap:butt;stroke-linejoin:miter;stroke-miterlimit:10;stroke-dasharray:none;stroke-opacity:1"
         id="path4610"
         inkscape:connector-curvature="0" /></g><g
       id="g4612"
       transform="translate(457.5396,359.1458)"><path
         d="M 0,0 7.749,-13.814 H -7.749 Z"
         style="fill:#3c2dfa;fill-opacity:1;fill-rule:nonzero;stroke:none"
         id="path4614"
         inkscape:connector-curvature="0" /></g><g
       id="g4616"
       transform="translate(417.6451,340.7012)"><path
         d="M 0,0 -7.749,-13.814 H 7.749 Z"
         style="fill:#3c2dfa;fill-opacity:1;fill-rule:nonzero;stroke:none"
         id="path4618"
         inkscape:connector-curvature="0" /></g><g
       id="g4620"
       transform="translate(430.6779,326.8873)"><path
         d="M 0,0 7.749,13.814 H -7.749 Z"
         style="fill:#3c2dfa;fill-opacity:1;fill-rule:nonzero;stroke:none"
         id="path4622"
         inkscape:connector-curvature="0" /></g><g
       id="g4624"
       transform="translate(444.5068,340.7012)"><path
         d="M 0,0 -7.749,-13.814 H 7.749 Z"
         style="fill:#3c2dfa;fill-opacity:1;fill-rule:nonzero;stroke:none"
         id="path4626"
         inkscape:connector-curvature="0" /></g><g
       id="g4628"
       transform="translate(457.5396,326.8873)"><path
         d="M 0,0 7.749,13.814 H -7.749 Z"
         style="fill:#3c2dfa;fill-opacity:1;fill-rule:nonzero;stroke:none"
         id="path4630"
         inkscape:connector-curvature="0" /></g></g></svg>