<?xml version="1.0" encoding="UTF-8" standalone="no"?>
<!-- Created with Inkscape (http://www.inkscape.org/) -->

<svg
   xmlns:dc="http://purl.org/dc/elements/1.1/"
   xmlns:cc="http://creativecommons.org/ns#"
   xmlns:rdf="http://www.w3.org/1999/02/22-rdf-syntax-ns#"
   xmlns:svg="http://www.w3.org/2000/svg"
   xmlns="http://www.w3.org/2000/svg"
   xmlns:sodipodi="http://sodipodi.sourceforge.net/DTD/sodipodi-0.dtd"
   xmlns:inkscape="http://www.inkscape.org/namespaces/inkscape"
   version="1.1"
   id="svg481"
   xml:space="preserve"
   width="623.90015"
   height="352.41931"
   viewBox="0 0 623.90014 352.41931"
   sodipodi:docname="open-digit-p20-areas-ca.svg"
   inkscape:version="0.92.3 (2405546, 2018-03-11)"><metadata
     id="metadata487"><rdf:RDF><cc:Work
         rdf:about=""><dc:format>image/svg+xml</dc:format><dc:type
           rdf:resource="http://purl.org/dc/dcmitype/StillImage" /><dc:title></dc:title></cc:Work></rdf:RDF></metadata><defs
     id="defs485"><clipPath
       clipPathUnits="userSpaceOnUse"
       id="clipPath499"><path
         d="M 0,841.89 H 595.276 V 0 H 0 Z"
         id="path497"
         inkscape:connector-curvature="0" /></clipPath></defs><sodipodi:namedview
     pagecolor="#ffffff"
     bordercolor="#666666"
     borderopacity="1"
     objecttolerance="10"
     gridtolerance="10"
     guidetolerance="10"
     inkscape:pageopacity="0"
     inkscape:pageshadow="2"
     inkscape:window-width="1280"
     inkscape:window-height="961"
     id="namedview483"
     showgrid="false"
     fit-margin-top="0"
     fit-margin-left="0"
     fit-margin-right="0"
     fit-margin-bottom="0"
     inkscape:zoom="0.63"
     inkscape:cx="283.46481"
     inkscape:cy="402.51786"
     inkscape:window-x="-4"
     inkscape:window-y="-4"
     inkscape:window-maximized="1"
     inkscape:current-layer="g489" /><g
     id="g489"
     inkscape:groupmode="layer"
     inkscape:label="open-digit-p20-areas-ca"
     transform="matrix(1.3333333,0,0,-1.3333333,-113.38586,511.16145)"><text
       transform="matrix(1,0,0,-1,247.6887,355.2607)"
       style="font-variant:normal;font-weight:bold;font-stretch:normal;font-size:13px;font-family:Apercu;-inkscape-font-specification:Apercu-Bold;writing-mode:lr-tb;fill:#3c2dfa;fill-opacity:1;fill-rule:nonzero;stroke:none"
       id="text601"><tspan
         x="0 9.0740004 16.952 24.063 31.733 40.742001 44.953999 51.389 59.060299 68.069298 72.008301 81.836304 85.060303 89.090302 92.314301 101.4143 109.5003 115.5713 122.863 130.94901 139.63429"
         y="0"
         sodipodi:role="line"
         id="tspan599">CAPACITACIÓ I CULTURA</tspan></text>
<g
       id="g603"
       transform="translate(86.5394,364.0547)"><path
         d="M 0,0 V -231.621"
         style="fill:none;stroke:#3c2dfa;stroke-width:3;stroke-linecap:butt;stroke-linejoin:miter;stroke-miterlimit:4;stroke-dasharray:11.878, 11.878;stroke-dashoffset:0;stroke-opacity:1"
         id="path605"
         inkscape:connector-curvature="0" /></g><g
       id="g607"
       transform="translate(104.8917,120.5566)"><path
         d="M 0,0 H 434.338"
         style="fill:none;stroke:#3c2dfa;stroke-width:3;stroke-linecap:butt;stroke-linejoin:miter;stroke-miterlimit:4;stroke-dasharray:12.235, 12.235;stroke-dashoffset:0;stroke-opacity:1"
         id="path609"
         inkscape:connector-curvature="0" /></g><g
       id="g611"
       transform="translate(551.4645,138.373)"><path
         d="M 0,0 V 231.619"
         style="fill:none;stroke:#3c2dfa;stroke-width:3;stroke-linecap:butt;stroke-linejoin:miter;stroke-miterlimit:4;stroke-dasharray:11.878, 11.878;stroke-dashoffset:0;stroke-opacity:1"
         id="path613"
         inkscape:connector-curvature="0" /></g><g
       id="g615"
       transform="translate(533.1122,381.8711)"><path
         d="M 0,0 H -434.338"
         style="fill:none;stroke:#3c2dfa;stroke-width:3;stroke-linecap:butt;stroke-linejoin:miter;stroke-miterlimit:4;stroke-dasharray:12.235, 12.235;stroke-dashoffset:0;stroke-opacity:1"
         id="path617"
         inkscape:connector-curvature="0" /></g><g
       id="g619"
       transform="translate(86.5394,126.4941)"><path
         d="m 0,0 v -5.937 h 6.117 m 452.691,0 h 6.117 V 0 m 0,249.437 v 5.94 h -6.117 m -452.691,0 H 0 v -5.94"
         style="fill:none;stroke:#3c2dfa;stroke-width:3;stroke-linecap:butt;stroke-linejoin:miter;stroke-miterlimit:4;stroke-dasharray:none;stroke-opacity:1"
         id="path621"
         inkscape:connector-curvature="0" /></g><path
       d="m 99.213,302.465 h 437.953 v 39.5 H 99.213 Z"
       style="fill:#ff4e51;fill-opacity:1;fill-rule:nonzero;stroke:none"
       id="path623"
       inkscape:connector-curvature="0" /><path
       d="m 99.213,259.414 h 437.953 v 39.5 H 99.213 Z"
       style="fill:#3c2dfa;fill-opacity:1;fill-rule:nonzero;stroke:none"
       id="path625"
       inkscape:connector-curvature="0" /><path
       d="m 99.213,171.869 h 437.953 v 39.5 H 99.213 Z"
       style="fill:#655afb;fill-opacity:1;fill-rule:nonzero;stroke:none"
       id="path627"
       inkscape:connector-curvature="0" /><path
       d="m 99.213,215.996 h 218.976 v 39.5 H 99.213 Z"
       style="fill:#ffe100;fill-opacity:1;fill-rule:nonzero;stroke:none"
       id="path629"
       inkscape:connector-curvature="0" /><path
       d="m 319.002,215.996 h 218.976 v 39.5 H 319.002 Z"
       style="fill:#ffed57;fill-opacity:1;fill-rule:nonzero;stroke:none"
       id="path631"
       inkscape:connector-curvature="0" /><path
       d="m 99.213,128.787 h 437.953 v 39.5 H 99.213 Z"
       style="fill:#ff7375;fill-opacity:1;fill-rule:nonzero;stroke:none"
       id="path633"
       inkscape:connector-curvature="0" /><text
       transform="matrix(1,0,0,-1,233.969,318.1819)"
       style="font-variant:normal;font-weight:bold;font-stretch:normal;font-size:13px;font-family:Apercu;-inkscape-font-specification:Apercu-Bold;writing-mode:lr-tb;fill:#ffffff;fill-opacity:1;fill-rule:nonzero;stroke:none"
       id="text647"><tspan
         x="0 7.4749999 13.312 18.486 24.947001 32.526001 40.195999 46.695999 52.208 59.994999 63.219002 70.849998 78.078003 81.302002 87.165001 94.341003 100.464 106.379 113.607 116.961 122.889 126.113 133.6777 136.994 143.7917 147.3017 152.47569 159.0537 162.5117"
         y="0"
         sodipodi:role="line"
         id="tspan635">Estandard de serveis digitals</tspan><tspan
         x="-3.4189999 3.484 6.9289999 10.309 17.601999 23.166 29.757 40.976002 48.165001 55.796001 60.891998 64.115997 71.747002 78.974998 82.198997 89.362 96.538002 102.661 108.576 115.804 119.158 125.086 128.31 137.09669 140.41299 147.21069 150.7207 155.8947 162.4727 165.93069"
         y="43.056"
         sodipodi:role="line"
         id="tspan637">Lliurament de Serveis Digitals</tspan><tspan
         x="34.592999 41.756001 49.438999 57.317001 64.492996 70.056999 76.517998 83.848701 87.384697 94.066704 97.290703 106.2347 113.0727 120.7037 127.9317"
         y="130.59801"
         sodipodi:role="line"
         id="tspan639">Soberania Dades</tspan><tspan
         x="-92.403999 -85.240997 -77.557999 -69.68 -62.504002 -56.941299 -50.480301 -43.1483 -39.612301 -32.930302 -29.706301 -23.5963 -16.095301 -8.9322996 -1.3533 6.3687 9.9307003 17.665701 24.464701 27.9604 35.1884"
         y="86.644997"
         sodipodi:role="line"
         id="tspan641">Soberania Tecnològica</tspan><tspan
         x="138.645 148.92799 156.338 161.369 169.23399 176.86501 184.58569 188.14771 195.88271 202.6817 206.1787 213.40669 219.3347 222.5587 230.8904 237.68941 241.00439 244.4624"
         y="86.696999"
         sodipodi:role="line"
         id="tspan643">Metodologies Àgils</tspan><tspan
         x="1.443 10.595 18.33 25.961 29.184999 39.467999 47.333 54.964001 62.139999 65.753998 68.977997 76.609001 83.836998 87.060997 96.341698 103.9727 111.6037 116.6997 122.2637 129.1017 136.5377 141.7117 148.5497 155.71271 159.2097"
         y="172.10699"
         sodipodi:role="line"
         id="tspan645">Nou Model de Contractació</tspan></text>
</g></svg>