<?xml version="1.0" encoding="UTF-8" standalone="no"?>
<!-- Created with Inkscape (http://www.inkscape.org/) -->

<svg
   xmlns:dc="http://purl.org/dc/elements/1.1/"
   xmlns:cc="http://creativecommons.org/ns#"
   xmlns:rdf="http://www.w3.org/1999/02/22-rdf-syntax-ns#"
   xmlns:svg="http://www.w3.org/2000/svg"
   xmlns="http://www.w3.org/2000/svg"
   xmlns:sodipodi="http://sodipodi.sourceforge.net/DTD/sodipodi-0.dtd"
   xmlns:inkscape="http://www.inkscape.org/namespaces/inkscape"
   version="1.1"
   id="svg10"
   xml:space="preserve"
   width="679.42401"
   height="696.54694"
   viewBox="0 0 679.42401 696.54692"
   sodipodi:docname="open-digit-p35-resources-ca.svg"
   inkscape:version="0.92.3 (2405546, 2018-03-11)"><metadata
     id="metadata16"><rdf:RDF><cc:Work
         rdf:about=""><dc:format>image/svg+xml</dc:format><dc:type
           rdf:resource="http://purl.org/dc/dcmitype/StillImage" /><dc:title></dc:title></cc:Work></rdf:RDF></metadata><defs
     id="defs14"><clipPath
       clipPathUnits="userSpaceOnUse"
       id="clipPath28"><path
         d="M 0,841.89 H 595.276 V 0 H 0 Z"
         id="path26"
         inkscape:connector-curvature="0" /></clipPath><clipPath
       clipPathUnits="userSpaceOnUse"
       id="clipPath162"><path
         d="M 0,0 H 595.276 V 841.89 H 0 Z"
         id="path160"
         inkscape:connector-curvature="0" /></clipPath></defs><sodipodi:namedview
     pagecolor="#ffffff"
     bordercolor="#666666"
     borderopacity="1"
     objecttolerance="10"
     gridtolerance="10"
     guidetolerance="10"
     inkscape:pageopacity="0"
     inkscape:pageshadow="2"
     inkscape:window-width="1280"
     inkscape:window-height="961"
     id="namedview12"
     showgrid="false"
     fit-margin-top="0"
     fit-margin-left="0"
     fit-margin-right="0"
     fit-margin-bottom="0"
     inkscape:zoom="0.67882976"
     inkscape:cx="421.19028"
     inkscape:cy="328.81733"
     inkscape:window-x="-4"
     inkscape:window-y="-4"
     inkscape:window-maximized="1"
     inkscape:current-layer="g18" /><g
     id="g18"
     inkscape:groupmode="layer"
     inkscape:label="open-digit-p35-resources-ca"
     transform="matrix(1.3333333,0,0,-1.3333333,-93.375331,928.98958)"><text
       transform="matrix(1,0,0,-1,234.8506,659.3541)"
       style="font-variant:normal;font-weight:bold;font-stretch:normal;font-size:11px;font-family:Apercu;-inkscape-font-specification:Apercu-Bold;writing-mode:lr-tb;fill:#000000;fill-opacity:1;fill-rule:nonzero;stroke:none"
       id="text56"><tspan
         x="0 6.4218001 13.1956 20.134399 26.4792 31.9 36.487 42.930801 47.911598 53.840599"
         y="0"
         sodipodi:role="line"
         id="tspan54">cobertura </tspan></text>
<text
       transform="matrix(1,0,0,-1,291.7184,659.3541)"
       style="font-variant:normal;font-weight:300;font-stretch:normal;font-size:11px;font-family:'Apercu Light';-inkscape-font-specification:Apercu-Light;writing-mode:lr-tb;fill:#000000;fill-opacity:1;fill-rule:nonzero;stroke:none"
       id="text60"><tspan
         x="0 6.5802002 12.9272 15.9742 18.759399 25.042601 30.267599 33.314602 38.409801 44.616001 50.349201 56.7644 63.003601 69.352798 73.600998 78.825996"
         y="0"
         sodipodi:role="line"
         id="tspan58">de les següents </tspan></text>
<text
       transform="matrix(1,0,0,-1,373.5914,659.3541)"
       style="font-variant:normal;font-weight:bold;font-stretch:normal;font-size:11px;font-family:Apercu;-inkscape-font-specification:Apercu-Bold;writing-mode:lr-tb;fill:#000000;fill-opacity:1;fill-rule:nonzero;stroke:none"
       id="text64"><tspan
         x="0 6.8178 10.1167 16.1744 22.596201 28.9872 34.278198 37.2812 40.172001 46.8578 50.9916 57.6884 62.6054 72.350304 78.343102 82.930099 86.161903 92.803703 99.445503 105.8365 111.1275"
         y="0"
         sodipodi:role="line"
         id="tspan62">places informàtiques:</tspan></text>
<text
       transform="matrix(1,0,0,-1,84.3354,505.3541)"
       style="font-variant:normal;font-weight:300;font-stretch:normal;font-size:11px;font-family:'Apercu Light';-inkscape-font-specification:Apercu-Light;writing-mode:lr-tb;fill:#000000;fill-opacity:1;fill-rule:nonzero;stroke:none"
       id="text70"><tspan
         x="0 6.5240998 9.5490999 13.5751 21.166201 27.579201 34.455299 40.165401 45.2705 49.605598 55.359699 64.996803 71.300903 77.714996 82.137001 86.163002 92.808098 99.2211 103.2471 110.2893 116.7694 122.8865 129.1356 133.6467 138.7628 145.4189 150.7099 154.7359 162.51401 168.8951 178.52119 184.1983 190.5024 195.7934 199.8194 206.4425 212.3495 216.3755 222.6796 229.2587 235.90379 242.1749 248.017 253.8591 258.2811 262.3071 268.69919 275.37619 279.40219 286.11331 290.72449 297.59949 303.7067 310.05481 315.34579 319.3718 324.53189 330.979 333.8291 340.3092 346.61331 350.59641 354.0174 360.6944 364.7204 371.75049 378.0766 382.80661 386.83261 389.6167 395.52371 399.54971 405.65579 412.33389 418.638 423.75409 427.73721 430.97229 435.2084 441.79849 447.59659 450.84271 457.26669"
         y="0"
         sodipodi:role="line"
         id="tspan66">El Departament de Recursos Humans ha endegat un procés selectiu per la constitució </tspan><tspan
         x="0 6.5802002 12.9272 16.331699 22.812901 29.3381 35.6213 40.846298 44.250801 51.216 57.620201 62.066399 67.161598 73.444801 78.6698 82.074303 88.654503 95.001503 98.405998 102.6212 107.1675 113.4617 120.2729 125.9181 128.4613 131.4203 134.8248 141.064 147.675 151.0795 153.8647 160.1479 165.37289 168.7774 174.7746 180.5518 184.72301 190.9292 196.5744 202.97861 207.3148 210.496 216.77921 222.0042 225.40871 231.69189 236.79919 246.3714 252.6095 258.95981 263.23001 269.11719 275.69739 281.98059 286.6908 290.08981 293.49429 299.49149 305.33249"
         y="14.003"
         sodipodi:role="line"
         id="tspan68">de dues borses de treball en les categories esmentades. La </tspan></text>
<text
       transform="matrix(1,0,0,-1,396.4934,491.3511)"
       style="font-variant:normal;font-weight:bold;font-stretch:normal;font-size:11px;font-family:Apercu;-inkscape-font-specification:Apercu-Bold;writing-mode:lr-tb;fill:#000000;fill-opacity:1;fill-rule:nonzero;stroke:none"
       id="text74"><tspan
         x="0 6.8178 10.1156 15.8554 22.332199 25.467199 29.941999 33.173801 39.562599 45.621399 51.957401 55.189201 62.042198"
         y="0"
         sodipodi:role="line"
         id="tspan72">planificació </tspan></text>
<text
       transform="matrix(1,0,0,-1,326.6303,627.1221)"
       style="font-variant:normal;font-weight:normal;font-stretch:normal;font-size:6px;font-family:Apercu;-inkscape-font-specification:Apercu;writing-mode:lr-tb;fill:#000000;fill-opacity:1;fill-rule:nonzero;stroke:none"
       id="text98"><tspan
         x="0 3.4560001 6.8280001 10.302 14.382 17.712"
         y="0"
         sodipodi:role="line"
         id="tspan86">PLACES</tspan><tspan
         x="0.58200002 4.0380001 7.4099998 10.962 12.57 16.128"
         y="7.9980001"
         sodipodi:role="line"
         id="tspan88">PLA RH</tspan><tspan
         x="42.473999 45.959999 48.546001 51.689999 55.248001 58.577999"
         y="0"
         sodipodi:role="line"
         id="tspan90">ALTRES</tspan><tspan
         x="39.714001 42.858002 46.332001 50.52 54.006001 58.212002 61.344002"
         y="7.9980001"
         sodipodi:role="line"
         id="tspan92">VACANTS</tspan><tspan
         x="79.884003 82.931999 87.251999 89.987999 93.473999"
         y="0"
         sodipodi:role="line"
         id="tspan94">TOTAL</tspan><tspan
         x="77.82 81.276001 84.648003 88.122002 92.202003 95.531998"
         y="7.9980001"
         sodipodi:role="line"
         id="tspan96">PLACES</tspan></text>
<path
       d="m 176.441,590.533 h 144.882 v 19.516 H 176.441 Z"
       style="fill:#3c2dfa;fill-opacity:1;fill-rule:nonzero;stroke:none"
       id="path100"
       inkscape:connector-curvature="0" /><path
       d="m 326.425,590.533 h 28.913 v 19.516 h -28.913 z"
       style="fill:#a09afd;fill-opacity:1;fill-rule:nonzero;stroke:none"
       id="path102"
       inkscape:connector-curvature="0" /><path
       d="m 326.425,564.502 h 28.913 v 19.516 h -28.913 z"
       style="fill:#ffa9aa;fill-opacity:1;fill-rule:nonzero;stroke:none"
       id="path104"
       inkscape:connector-curvature="0" /><path
       d="m 326.425,538.91 h 28.913 v 19.516 h -28.913 z"
       style="fill:#fff079;fill-opacity:1;fill-rule:nonzero;stroke:none"
       id="path106"
       inkscape:connector-curvature="0" /><path
       d="m 401.543,590.533 h 28.913 v 19.516 h -28.913 z"
       style="fill:#a09afd;fill-opacity:1;fill-rule:nonzero;stroke:none"
       id="path108"
       inkscape:connector-curvature="0" /><path
       d="m 401.543,564.502 h 28.913 v 19.516 h -28.913 z"
       style="fill:#ffa9aa;fill-opacity:1;fill-rule:nonzero;stroke:none"
       id="path110"
       inkscape:connector-curvature="0" /><path
       d="m 401.543,538.91 h 28.913 v 19.516 h -28.913 z"
       style="fill:#fff079;fill-opacity:1;fill-rule:nonzero;stroke:none"
       id="path112"
       inkscape:connector-curvature="0" /><path
       d="m 363.984,590.533 h 28.913 v 19.516 h -28.913 z"
       style="fill:#a09afd;fill-opacity:1;fill-rule:nonzero;stroke:none"
       id="path114"
       inkscape:connector-curvature="0" /><path
       d="m 363.984,564.502 h 28.913 v 19.516 h -28.913 z"
       style="fill:#ffa9aa;fill-opacity:1;fill-rule:nonzero;stroke:none"
       id="path116"
       inkscape:connector-curvature="0" /><path
       d="m 363.984,538.91 h 28.913 v 19.516 h -28.913 z"
       style="fill:#fff079;fill-opacity:1;fill-rule:nonzero;stroke:none"
       id="path118"
       inkscape:connector-curvature="0" /><path
       d="m 176.441,564.502 h 144.882 v 19.516 H 176.441 Z"
       style="fill:#ff4e51;fill-opacity:1;fill-rule:nonzero;stroke:none"
       id="path120"
       inkscape:connector-curvature="0" /><path
       d="m 176.441,538.91 h 144.882 v 19.516 H 176.441 Z"
       style="fill:#ffe100;fill-opacity:1;fill-rule:nonzero;stroke:none"
       id="path122"
       inkscape:connector-curvature="0" /><text
       transform="matrix(1,0,0,-1,183.2861,597.4927)"
       style="font-variant:normal;font-weight:bold;font-stretch:normal;font-size:9px;font-family:Apercu;-inkscape-font-specification:Apercu-Bold;writing-mode:lr-tb;fill:#ffffff;fill-opacity:1;fill-rule:nonzero;stroke:none"
       id="text146"><tspan
         x="0 4.23 9.4230003 14.382 19.458 21.879 26.837999 29.028601 33.780602 38.856602 44.3106 49.278599 53.229599 55.6506 60.906601 64.704597 66.895203 72.070198 77.353203 79.544701 82.091698 87.338699 90.497704 95.7537 99.551697 107.3007 111.9807 115.5087 117.9288 122.9328 152.289 157.42799"
         y="0"
         sodipodi:role="line"
         id="tspan124">Tècnic Superior En Informàtica28</tspan><tspan
         x="152.442 157.41901"
         y="26.028"
         sodipodi:role="line"
         id="tspan126">32</tspan><tspan
         x="152.04601 157.26601"
         y="51.48"
         sodipodi:role="line"
         id="tspan128">60</tspan><tspan
         x="192.39301"
         y="-7.9936058e-015"
         id="tspan130">4</tspan><tspan
         x="192.276"
         y="26.028"
         id="tspan132">0</tspan><tspan
         x="192.39301"
         y="51.48"
         id="tspan134">4</tspan><tspan
         x="227.62801 232.605"
         y="-7.9936058e-015"
         sodipodi:role="line"
         id="tspan136">32</tspan><tspan
         x="227.62801 232.605"
         y="26.028"
         sodipodi:role="line"
         id="tspan138">32</tspan><tspan
         x="227.38499 232.524"
         y="51.48"
         sodipodi:role="line"
         id="tspan140">64</tspan><tspan
         x="0.0089999996 4.2389998 9.4320002 14.391 19.466999 21.888 26.847 29.079 36.161098 38.591099 42.119099 44.4501 49.238098 54.143101 60.425098 65.051102 67.283096 72.458099 77.741096 79.973099 82.520103 87.767097 90.926102 96.182098 99.980103 107.7291 112.4082 115.9362 118.3572 123.3612"
         y="26.028"
         sodipodi:role="line"
         id="tspan142">Tècnic Mitjà/Na En Informàtica</tspan><tspan
         x="0.0089999996 4.7789998 11.466 15.921 21.375 26.153999 28.386 33.804001 39.087002 44.396999 50.633999 55.808998"
         y="50.912998"
         sodipodi:role="line"
         id="tspan144">TOTAL PLACES</tspan></text>
<g
       id="g148"
       transform="translate(109.6063,345.8281)"><path
         d="M 0,0 H 410.534"
         style="fill:none;stroke:#ff4e51;stroke-width:6;stroke-linecap:butt;stroke-linejoin:miter;stroke-miterlimit:4;stroke-dasharray:none;stroke-opacity:1"
         id="path150"
         inkscape:connector-curvature="0" /></g><g
       id="g152"
       transform="translate(532.9134,345.8281)"><path
         d="M 0,0 -22.055,8.023 V -8.027 Z"
         style="fill:#ff4e51;fill-opacity:1;fill-rule:nonzero;stroke:none"
         id="path154"
         inkscape:connector-curvature="0" /></g><g
       id="g156"><g
         id="g158"
         clip-path="url(#clipPath162)"><g
           id="g164"
           transform="translate(114.3307,325.6484)"><path
             d="M 0,0 C 11.144,0 20.177,9.035 20.177,20.18 20.177,31.32 11.144,40.355 0,40.355 -11.144,40.355 -20.177,31.32 -20.177,20.18 -20.177,9.035 -11.144,0 0,0"
             style="fill:#ffffff;fill-opacity:1;fill-rule:nonzero;stroke:none"
             id="path166"
             inkscape:connector-curvature="0" /></g><g
           id="g168"
           transform="translate(114.3307,325.6484)"><path
             d="M 0,0 C 11.144,0 20.177,9.035 20.177,20.18 20.177,31.32 11.144,40.355 0,40.355 -11.144,40.355 -20.177,31.32 -20.177,20.18 -20.177,9.035 -11.144,0 0,0 Z"
             style="fill:none;stroke:#3c2dfa;stroke-width:5;stroke-linecap:butt;stroke-linejoin:miter;stroke-miterlimit:4;stroke-dasharray:none;stroke-opacity:1"
             id="path170"
             inkscape:connector-curvature="0" /></g><g
           id="g172"
           transform="translate(256.8189,325.6484)"><path
             d="M 0,0 C 11.144,0 20.177,9.035 20.177,20.18 20.177,31.32 11.144,40.355 0,40.355 -11.144,40.355 -20.177,31.32 -20.177,20.18 -20.177,9.035 -11.144,0 0,0"
             style="fill:#ffffff;fill-opacity:1;fill-rule:nonzero;stroke:none"
             id="path174"
             inkscape:connector-curvature="0" /></g><g
           id="g176"
           transform="translate(256.8189,325.6484)"><path
             d="M 0,0 C 11.144,0 20.177,9.035 20.177,20.18 20.177,31.32 11.144,40.355 0,40.355 -11.144,40.355 -20.177,31.32 -20.177,20.18 -20.177,9.035 -11.144,0 0,0 Z"
             style="fill:none;stroke:#3c2dfa;stroke-width:5;stroke-linecap:butt;stroke-linejoin:miter;stroke-miterlimit:4;stroke-dasharray:none;stroke-opacity:1"
             id="path178"
             inkscape:connector-curvature="0" /></g><g
           id="g180"
           transform="translate(399.3071,325.6484)"><path
             d="M 0,0 C 11.144,0 20.177,9.035 20.177,20.18 20.177,31.32 11.144,40.355 0,40.355 -11.144,40.355 -20.177,31.32 -20.177,20.18 -20.177,9.035 -11.144,0 0,0"
             style="fill:#ffffff;fill-opacity:1;fill-rule:nonzero;stroke:none"
             id="path182"
             inkscape:connector-curvature="0" /></g><g
           id="g184"
           transform="translate(399.3071,325.6484)"><path
             d="M 0,0 C 11.144,0 20.177,9.035 20.177,20.18 20.177,31.32 11.144,40.355 0,40.355 -11.144,40.355 -20.177,31.32 -20.177,20.18 -20.177,9.035 -11.144,0 0,0 Z"
             style="fill:none;stroke:#3c2dfa;stroke-width:5;stroke-linecap:butt;stroke-linejoin:miter;stroke-miterlimit:4;stroke-dasharray:none;stroke-opacity:1"
             id="path186"
             inkscape:connector-curvature="0" /></g><g
           id="g188"
           transform="translate(185.5748,325.6484)"><path
             d="M 0,0 C 11.144,0 20.177,9.035 20.177,20.18 20.177,31.32 11.144,40.355 0,40.355 -11.144,40.355 -20.177,31.32 -20.177,20.18 -20.177,9.035 -11.144,0 0,0"
             style="fill:#ffffff;fill-opacity:1;fill-rule:nonzero;stroke:none"
             id="path190"
             inkscape:connector-curvature="0" /></g><g
           id="g192"
           transform="translate(185.5748,325.6484)"><path
             d="M 0,0 C 11.144,0 20.177,9.035 20.177,20.18 20.177,31.32 11.144,40.355 0,40.355 -11.144,40.355 -20.177,31.32 -20.177,20.18 -20.177,9.035 -11.144,0 0,0 Z"
             style="fill:none;stroke:#3c2dfa;stroke-width:5;stroke-linecap:butt;stroke-linejoin:miter;stroke-miterlimit:4;stroke-dasharray:none;stroke-opacity:1"
             id="path194"
             inkscape:connector-curvature="0" /></g><g
           id="g196"
           transform="translate(328.063,325.6484)"><path
             d="M 0,0 C 11.144,0 20.177,9.035 20.177,20.18 20.177,31.32 11.144,40.355 0,40.355 -11.144,40.355 -20.177,31.32 -20.177,20.18 -20.177,9.035 -11.144,0 0,0"
             style="fill:#ffffff;fill-opacity:1;fill-rule:nonzero;stroke:none"
             id="path198"
             inkscape:connector-curvature="0" /></g><g
           id="g200"
           transform="translate(328.063,325.6484)"><path
             d="M 0,0 C 11.144,0 20.177,9.035 20.177,20.18 20.177,31.32 11.144,40.355 0,40.355 -11.144,40.355 -20.177,31.32 -20.177,20.18 -20.177,9.035 -11.144,0 0,0 Z"
             style="fill:none;stroke:#3c2dfa;stroke-width:5;stroke-linecap:butt;stroke-linejoin:miter;stroke-miterlimit:4;stroke-dasharray:none;stroke-opacity:1"
             id="path202"
             inkscape:connector-curvature="0" /></g><g
           id="g204"
           transform="translate(470.5512,325.7734)"><path
             d="M 0,0 C 11.144,0 20.177,9.035 20.177,20.18 20.177,31.32 11.144,40.355 0,40.355 -11.144,40.355 -20.177,31.32 -20.177,20.18 -20.177,9.035 -11.144,0 0,0"
             style="fill:#ffffff;fill-opacity:1;fill-rule:nonzero;stroke:none"
             id="path206"
             inkscape:connector-curvature="0" /></g><g
           id="g208"
           transform="translate(470.5512,325.7734)"><path
             d="M 0,0 C 11.144,0 20.177,9.035 20.177,20.18 20.177,31.32 11.144,40.355 0,40.355 -11.144,40.355 -20.177,31.32 -20.177,20.18 -20.177,9.035 -11.144,0 0,0 Z"
             style="fill:none;stroke:#3c2dfa;stroke-width:5;stroke-linecap:butt;stroke-linejoin:miter;stroke-miterlimit:4;stroke-dasharray:none;stroke-opacity:1"
             id="path210"
             inkscape:connector-curvature="0" /></g></g></g><text
       transform="matrix(1,0,0,-1,107.4077,344.0104)"
       style="font-variant:normal;font-weight:300;font-stretch:normal;font-size:7px;font-family:'Apercu Light';-inkscape-font-specification:Apercu-Light;writing-mode:lr-tb;fill:#000000;fill-opacity:1;fill-rule:nonzero;stroke:none"
       id="text216"><tspan
         x="0 5.3060002 8.6590004 10.409 70.755997 74.151001 78.000999 81.900002 141.442 144.83701 148.589 149.94 151.75301 155.67999 203.651 207.172 211.036 215.17999 217.6573 221.47231 227.1563 231.2093 233.92529 278.13101 283.23401 287.02802 289.50601 293.349 297.40201 300.11801"
         y="0"
         sodipodi:role="line"
         id="tspan212">MaigJunyJuliolSeptembreOctubre</tspan><tspan
         x="347.116 351.939 355.957 359.05099 362.866 368.54999 372.603 375.3183"
         y="0.70700002"
         sodipodi:role="line"
         id="tspan214">Novembre</tspan></text>
<text
       transform="matrix(1,0,0,-1,132.5197,431.9431)"
       style="font-variant:normal;font-weight:300;font-stretch:normal;font-size:9px;font-family:'Apercu Light';-inkscape-font-specification:Apercu-Light;writing-mode:lr-tb;fill:#000000;fill-opacity:1;fill-rule:nonzero;stroke:none"
       id="text260"><tspan
         x="0 5.4809999 10.503 15.219 20.268 22.122 23.858999 26.208 31.464001 36.017101 38.285099 43.442101 48.410099 50.678101 55.358101 59.723099 64.826103 69.767097 72.116096 77.372101 81.872101 85.058098 89.891098 93.383102 98.297096"
         y="0"
         sodipodi:role="line"
         id="tspan222">Recollida de candidatures</tspan><tspan
         x="0 5.211 8.7030001 13.617 17.559 22.437 27.405001 30.672001 35.261101 40.418098 45.3321 49.382099 53.2071 57.7971 62.855099 70.460098 75.3741 79.316101 84.230103"
         y="10.998"
         sodipodi:role="line"
         id="tspan224">presentades/admeses</tspan><tspan
         x="0 3.744 8.7659998 13.437 18.18 20.556 25.271999 29.097 33.651001 35.918999 40.41 45.368999 50.841 55.737 59.057999 61.389 66.402 69.992996 72.675003 74.943001 79.946098 82.818001 88.019096 92.4021 97.406097 100.4391 105.6051"
         y="21.996"
         sodipodi:role="line"
         id="tspan226">Tècnic/a Superior: 214/216,</tspan><tspan
         x="0 3.744 8.7659998 13.437 18.18 20.556 25.271999 29.097 33.651001 35.918999 42.624001 44.874001 49.292999 51.974998 54.243 57.230999 62.262001 66.735001 71.271004 74.304001 79.164001 82.278"
         y="32.993999"
         sodipodi:role="line"
         id="tspan228">Tècnic/a Mig: 199/161 </tspan><tspan
         x="-44.604 -39.419998 -34.479 -29.304001 -27.566999 -25.191 -20.511 -15.921 -11.457 -9.0810003 -3.825 -1.557 3.6008999 8.5689001"
         y="146.817"
         sodipodi:role="line"
         id="tspan230">Publicació de </tspan><tspan
         x="-44.604 -42.768002 -40.292999 -35.928001 -30.941999 -25.992001 -20.889 -16.424999 -13.905 -11.637 -7.2449999 -5.0489998 -2.7809999 3.0869999 9.585 15.939"
         y="157.815"
         sodipodi:role="line"
         id="tspan232">l’anunci al DOGC</tspan><tspan
         x="61.605 66.789001 71.730003 76.904999 78.641998 81.017998 85.697998 90.288002 94.751999 97.127998 102.384 104.652 109.809 114.777"
         y="146.817"
         sodipodi:role="line"
         id="tspan234">Publicació de:</tspan><tspan
         x="61.605 64.161003 66.429001 71.144997 76.329002 81.207001 85.112999 88.092003 90.459 93.644997 98.757004 103.221 105.597 110.853 113.121 118.278 123.246 125.514 127.566 132.4791 136.5291 138.7971 144.855 150.00301 157.347 159.52409 163.29601 167.022 169.353 174.537 179.41499 183.465 185.733 190.8891 195.8571"
         y="157.815"
         sodipodi:role="line"
         id="tspan236">· constitució de les Comissions de </tspan><tspan
         x="61.605 66.132004 71.126999 73.179001 78.200996 82.917 87.380997 89.757004 95.013 97.280998 101.673 103.869 106.137 112.068 117.324 123.444"
         y="168.813"
         sodipodi:role="line"
         id="tspan238">Selecció al DoC,</tspan><tspan
         x="61.605 64.161003 66.429001 68.282997 70.019997 72.197998 76.103996 79.290001 84.204002 88.253998 90.522003 95.733002 99.224998 104.391 108.252 110.43 114.156 116.487 121.671 126.729 131.121 133.146 137.196 139.464 144.84599 147.321 151.911 156.96809 164.5731 169.48711 173.3931 178.5591 182.6091 184.87711 187.39709"
         y="179.811"
         sodipodi:role="line"
         id="tspan240">· llistes provisionals d’admesos i </tspan><tspan
         x="61.605 66.446999 70.344002 75.096001 77.148003 82.314003 86.220001 91.386002 95.435997 97.704002 100.233 102.303 107.271 110.493 114.03 118.395 123.507 128.439 131.778 134.04601 136.56599 138.834 146.457 151.38 156.76199 159.03 165.85201 170.802 175.545 177.92101 182.38499 184.42799 189.774 194.166 196.362 198.89101"
         y="190.80901"
         sodipodi:role="line"
         id="tspan242">exclosos (Intranet i Web Municipal),</tspan><tspan
         x="61.605 64.161003 66.429001 70.172997 75.069 78.542999 85.887001 88.056 92.799004 95.319 97.586998 102.969 105.444 109.836 112.032 114.588 116.64 121.491 125.9901 130.58009 135.0441 137.37511 142.5591 147.4371 151.0641"
         y="201.80701"
         sodipodi:role="line"
         id="tspan244">· Termini d’al·legacions,</tspan><tspan
         x="61.605 64.161003 68.795998 70.532997 72.710999 76.616997 79.884003 84.438004 86.706001 92.637001 97.605003 102.447 107.1891 109.557 112.536 114.876 118.8 123.354 125.622 130.77811 135.74609 138.0141 143.4861 148.3821 151.79311 155.6991 160.8831 165.9951 170.9091 174.95911 177.2271 181.81709 186.87511 194.4801 199.4481"
         y="212.80499"
         sodipodi:role="line"
         id="tspan246">·Llista Defnitiva de persones adme-</tspan><tspan
         x="61.605 65.546997 70.460999 74.511002 78.471001 83.312103 87.209999 91.961998 94.0131 99.1791 103.1211 108.0351"
         y="223.80299"
         sodipodi:role="line"
         id="tspan248">ses/excloses</tspan><tspan
         x="229.32001 234.504 239.44501 244.62 246.35699 248.733 253.41299 258.00299 262.46701 264.84299 270.099 272.367 277.52399 282.492 284.76001 288.25201 293.16599 296.96399 301.78799 303.939 307.20511 311.70511 314.9541 319.00409"
         y="146.799"
         sodipodi:role="line"
         id="tspan250">Publicació de resultats </tspan><tspan
         x="229.32001 234.47701 239.44501 241.713 243.711 248.265 250.533 253.647 258.20099 260.46899 265.67999 269.172 274.33801 278.26199 282.76199 285.27301 287.54099 292.25699 297.44101 302.625 306.55801 311.90399 316.58401 321.138"
         y="157.797"
         sodipodi:role="line"
         id="tspan252">de la 1a prova, convoca-</tspan><tspan
         x="229.32001 232.506 237.591 240.912 243.162 247.716 249.98399 252.504 254.772 258.26401 263.32199 267.71399 269.45099 271.81799 275.10211 279.12509 283.71509 288.17911 290.556 295.81201 298.07999 303.23611 308.2041 310.47211 312.47009 317.02411"
         y="168.795"
         sodipodi:role="line"
         id="tspan254">tòria i realització de la </tspan><tspan
         x="229.32001 234.53101 238.02299 243.189 247.11301 251.66701 253.935 259.09201 264.06 266.328 271.008 275.508 278.77499 283.16699 285.16501 289.71899 291.987 294.50699 296.77499 302.013 306.95401 312.129 313.866 316.38599"
         y="179.793"
         sodipodi:role="line"
         id="tspan256">prova de català i publi-</tspan><tspan
         x="229.32001 234 238.59 243.054 245.42999 250.686 252.95399 258.11099 263.1051 265.1301 269.18011 271.44809 274.94009 279.8541 283.6521 288.4761 290.62711 293.8941 298.3941 301.6431 305.27011"
         y="190.791"
         sodipodi:role="line"
         id="tspan258">cació dels resultats.</tspan></text>
<text
       transform="matrix(1,0,0,-1,470.7834,296.043)"
       style="font-variant:normal;font-weight:bold;font-stretch:normal;font-size:11px;font-family:Apercu;-inkscape-font-specification:Apercu-Bold;writing-mode:lr-tb;fill:#3c2dfa;fill-opacity:1;fill-rule:nonzero;stroke:none"
       id="text270"><tspan
         x="0 6.4349999 11.561 14.399 20.944 25.718 32.021 37.136002 43.438999 50.006001 52.844002 55.979 61.743 64.581001 67.308998 73.832001 80.091003 86.625 91.376999"
         y="0"
         sodipodi:role="line"
         id="tspan262">Es preveu la incor-</tspan><tspan
         x="0 6.776 13.31 18.128 24.024 30.195 33.264 39.952 42.790001 49.488998 53.272999 59.168999 65.648003 72.126999 78.352997 83.478996"
         y="13.002"
         sodipodi:role="line"
         id="tspan264">poració d’aques-</tspan><tspan
         x="0 4.3670001 10.593 15.719 18.556999 25.333 31.514999 36.266998 41.338001 47.904999 54.428001 60.653999 65.669998"
         y="26.004"
         sodipodi:role="line"
         id="tspan266">tes persones </tspan><tspan
         x="0 6.4679999 12.749 17.566999 23.143999 29.711 34.132999 36.971001 43.153 46.320999 49.159 53.823002 59.84 62.678001 69.091003 75.877998 80.475998"
         y="39.006001"
         sodipodi:role="line"
         id="tspan268">durant el 1S 2018</tspan></text>
<text
       transform="matrix(1,0,0,-1,272.7822,431.9431)"
       style="font-variant:normal;font-weight:300;font-stretch:normal;font-size:9px;font-family:'Apercu Light';-inkscape-font-specification:Apercu-Light;writing-mode:lr-tb;fill:#000000;fill-opacity:1;fill-rule:nonzero;stroke:none"
       id="text290"><tspan
         x="0 5.4809999 10.539 14.931 16.667999 19.035 22.32 26.343 30.933001 35.396999 37.772999 43.028999 45.297001 50.453999 55.422001 57.689999 59.742001 64.655998 68.706001 70.973999 76.184998 79.677002 84.843002 88.820999 93.735001 97.785004"
         y="0"
         sodipodi:role="line"
         id="tspan272">Realització de les proves </tspan><tspan
         x="0 5.013 8.7390003 11.115 15.831 21.033001 24.219 29.240999 33.911999 38.654999 40.994999 46.143002 51.255001 56.168999 60.219002 62.487 65.015999 70.100998 73.593002 78.759003 82.682999 87.237"
         y="10.998"
         sodipodi:role="line"
         id="tspan274">Psicotècniques (Prova </tspan><tspan
         x="0 5.382 7.8569999 13.032 18.360001 21.339001 23.705999 26.892 32.004002 37.196999 41.247002 43.514999 46.035 48.303001 53.5131 57.0051 62.172001 66.096001 70.650002 72.917999 78.074997 83.042999 85.310997 90.782097 95.678101 99.269096"
         y="21.996"
         sodipodi:role="line"
         id="tspan276">d’Aptituds i prova de per-</tspan><tspan
         x="0 3.9059999 9.0900002 14.148 18.540001 20.277 22.643999 25.910999 30.410999 33.75 36.018002 38.537998 42.498001 47.754002 50.021999 54.737999 59.886002 67.356003 72.828003 77.760002 80.945999 85.823997 90.926102 95.390099 97.640999 102.033 104.229"
         y="32.993999"
         sodipodi:role="line"
         id="tspan278">sonalitat i/o competencial)</tspan><tspan
         x="133.119 138.50999 143.478 147.78 149.427 151.70399 154.899 158.832 163.332 167.70599 169.992 175.158 177.336 182.403 187.28101 189.459 191.42101 196.24409 200.2041 202.3821 207.1701 212.0481 215.1801 218.58211 223.43311 227.2041 229.2921 233.10809 236.2041 241.02811 244.9881 247.16611 252.5481 257.3541 260.67511 264.49109 269.65799"
         y="-11.061"
         sodipodi:role="line"
         id="tspan280">Realització de les entrevistes perso-</tspan><tspan
         x="133.119 138.08701 142.38901 144.32401 148.284 150.46201 152.892 156.76289 161.92889 164.1069 168.73289 173.79089 181.1709 186.5529 191.3949 194.49091 199.2789 204.2919 208.66589 210.8259 215.127 217.062 221.022 223.2 225.63 227.808 232.95599 237.80701 242.892 244.539 246.825 251.41499 255.91499 260.289 262.57501 267.83099"
         y="-0.063000001"
         sodipodi:role="line"
         id="tspan282">nals i/o competencials i publicació </tspan><tspan
         x="133.119 138.186 143.091 145.026 148.98599 151.164 154.56599 159.39 163.09801 167.832 169.89301 173.07001 177.48 180.63901 184.17599 186.597 188.77499 193.869 198.72 203.80499 205.452 207.73801 212.3289 216.8289 221.2029 223.48891 228.65491 230.8329 235.8999 240.8049 242.9109 245.0889 248.49091 253.3149 257.02289 261.7569 263.8179 266.9949 271.40491 274.7439"
         y="10.935"
         sodipodi:role="line"
         id="tspan284">dels resultats, Publicació del resultat </tspan><tspan
         x="133.119 137.871 142.839 147.14101 149.24699 151.839 154.017 158.49899 163.04401 165.132 168.948 172.125 176.589 178.767 184.149 188.955 192.45599 194.634 199.55701 202.959 207.828 211.23 216.108 218.286 223.353 228.231 230.409 235.55701 240.41701 245.295 248.39011 253.34911 257.84909 262.22311 264.50909 269.76511"
         y="21.933001"
         sodipodi:role="line"
         id="tspan286">fnal: LLista per ordre de puntuació </tspan><tspan
         x="133.119 138.186 143.064 145.242 147.20399 152.028 155.98801 158.166 163.548 168.354 171.675 175.491 180.58501 185.60699 190.431 194.39101 196.569 200.93491 204.6879 209.7549 211.72591 215.1729 219.44791 224.3259 227.48489 231.4449 233.62289 237.90691 243.02789 246.4299 251.50591 255.3399 259.8399 264.90781 269.73181"
         y="32.931"
         sodipodi:role="line"
         id="tspan288">de les persones aspirants aprovades</tspan></text>
<g
       id="g292"
       transform="translate(185.5748,368.5039)"><path
         d="M 0,0 V 19.402"
         style="fill:none;stroke:#ffe100;stroke-width:1;stroke-linecap:butt;stroke-linejoin:miter;stroke-miterlimit:4;stroke-dasharray:6.468, 6.468;stroke-dashoffset:0;stroke-opacity:1"
         id="path294"
         inkscape:connector-curvature="0" /></g><g
       id="g296"
       transform="translate(185.5748,393.3711)"><path
         d="M 0,0 -2.552,-7.012 H 2.552 Z"
         style="fill:#ffe100;fill-opacity:1;fill-rule:nonzero;stroke:none"
         id="path298"
         inkscape:connector-curvature="0" /></g><g
       id="g300"
       transform="translate(114.3307,323.1484)"><path
         d="M 0,0 V -19.402"
         style="fill:none;stroke:#ffe100;stroke-width:1;stroke-linecap:butt;stroke-linejoin:miter;stroke-miterlimit:4;stroke-dasharray:6.468, 6.468;stroke-dashoffset:0;stroke-opacity:1"
         id="path302"
         inkscape:connector-curvature="0" /></g><g
       id="g304"
       transform="translate(114.3307,298.2812)"><path
         d="M 0,0 2.552,7.012 H -2.552 Z"
         style="fill:#ffe100;fill-opacity:1;fill-rule:nonzero;stroke:none"
         id="path306"
         inkscape:connector-curvature="0" /></g><g
       id="g308"
       transform="translate(258.6646,323.1484)"><path
         d="M 0,0 V -19.402"
         style="fill:none;stroke:#ffe100;stroke-width:1;stroke-linecap:butt;stroke-linejoin:miter;stroke-miterlimit:4;stroke-dasharray:6.468, 6.468;stroke-dashoffset:0;stroke-opacity:1"
         id="path310"
         inkscape:connector-curvature="0" /></g><g
       id="g312"
       transform="translate(258.6646,298.2812)"><path
         d="M 0,0 2.552,7.012 H -2.552 Z"
         style="fill:#ffe100;fill-opacity:1;fill-rule:nonzero;stroke:none"
         id="path314"
         inkscape:connector-curvature="0" /></g><g
       id="g316"
       transform="translate(400.155,323.1484)"><path
         d="M 0,0 V -19.402"
         style="fill:none;stroke:#ffe100;stroke-width:1;stroke-linecap:butt;stroke-linejoin:miter;stroke-miterlimit:4;stroke-dasharray:6.468, 6.468;stroke-dashoffset:0;stroke-opacity:1"
         id="path318"
         inkscape:connector-curvature="0" /></g><g
       id="g320"
       transform="translate(400.155,298.2812)"><path
         d="M 0,0 2.552,7.012 H -2.552 Z"
         style="fill:#ffe100;fill-opacity:1;fill-rule:nonzero;stroke:none"
         id="path322"
         inkscape:connector-curvature="0" /></g><g
       id="g324"
       transform="translate(328.4825,368.5039)"><path
         d="M 0,0 V 19.402"
         style="fill:none;stroke:#ffe100;stroke-width:1;stroke-linecap:butt;stroke-linejoin:miter;stroke-miterlimit:4;stroke-dasharray:6.468, 6.468;stroke-dashoffset:0;stroke-opacity:1"
         id="path326"
         inkscape:connector-curvature="0" /></g><g
       id="g328"
       transform="translate(328.4825,393.3711)"><path
         d="M 0,0 -2.552,-7.012 H 2.552 Z"
         style="fill:#ffe100;fill-opacity:1;fill-rule:nonzero;stroke:none"
         id="path330"
         inkscape:connector-curvature="0" /></g><g
       id="g332"
       transform="translate(470.7834,368.5039)"><path
         d="M 0,0 V 19.402"
         style="fill:none;stroke:#ffe100;stroke-width:1;stroke-linecap:butt;stroke-linejoin:miter;stroke-miterlimit:4;stroke-dasharray:6.468, 6.468;stroke-dashoffset:0;stroke-opacity:1"
         id="path334"
         inkscape:connector-curvature="0" /></g><g
       id="g336"
       transform="translate(470.7834,393.3711)"><path
         d="M 0,0 -2.552,-7.012 H 2.552 Z"
         style="fill:#ffe100;fill-opacity:1;fill-rule:nonzero;stroke:none"
         id="path338"
         inkscape:connector-curvature="0" /></g><g
       id="g340"
       transform="translate(127.0157,425.5781)"><path
         d="M 0,0 V -19.023"
         style="fill:none;stroke:#ffe100;stroke-width:1;stroke-linecap:butt;stroke-linejoin:miter;stroke-miterlimit:4;stroke-dasharray:12.683, 12.683;stroke-dashoffset:0;stroke-opacity:1"
         id="path342"
         inkscape:connector-curvature="0" /></g><g
       id="g344"
       transform="translate(145.0795,393.8711)"><path
         d="M 0,0 H 90.319"
         style="fill:none;stroke:#ffe100;stroke-width:1;stroke-linecap:butt;stroke-linejoin:miter;stroke-miterlimit:4;stroke-dasharray:12.043, 12.043;stroke-dashoffset:0;stroke-opacity:1"
         id="path346"
         inkscape:connector-curvature="0" /></g><g
       id="g348"
       transform="translate(247.4409,412.8945)"><path
         d="M 0,0 V 19.023"
         style="fill:none;stroke:#ffe100;stroke-width:1;stroke-linecap:butt;stroke-linejoin:miter;stroke-miterlimit:4;stroke-dasharray:12.683, 12.683;stroke-dashoffset:0;stroke-opacity:1"
         id="path350"
         inkscape:connector-curvature="0" /></g><g
       id="g352"
       transform="translate(229.3771,444.6016)"><path
         d="M 0,0 H -90.319"
         style="fill:none;stroke:#ffe100;stroke-width:1;stroke-linecap:butt;stroke-linejoin:miter;stroke-miterlimit:4;stroke-dasharray:12.043, 12.043;stroke-dashoffset:0;stroke-opacity:1"
         id="path354"
         inkscape:connector-curvature="0" /></g><g
       id="g356"
       transform="translate(127.0157,400.2109)"><path
         d="m 0,0 v -6.34 h 6.021 m 108.383,0 h 6.021 V 0 m 0,38.051 v 6.34 h -6.021 m -108.383,0 H 0 v -6.34"
         style="fill:none;stroke:#ffe100;stroke-width:1;stroke-linecap:butt;stroke-linejoin:miter;stroke-miterlimit:4;stroke-dasharray:none;stroke-opacity:1"
         id="path358"
         inkscape:connector-curvature="0" /></g><g
       id="g360"
       transform="translate(102.4105,264.1211)"><path
         d="M 0,0 H 46.657"
         style="fill:none;stroke:#ffe100;stroke-width:1;stroke-linecap:butt;stroke-linejoin:miter;stroke-miterlimit:4;stroke-dasharray:13.33, 13.33;stroke-dashoffset:0;stroke-opacity:1"
         id="path362"
         inkscape:connector-curvature="0" /></g><g
       id="g364"
       transform="translate(142.4019,297.7812)"><path
         d="M 0,0 H -46.657"
         style="fill:none;stroke:#ffe100;stroke-width:1;stroke-linecap:butt;stroke-linejoin:miter;stroke-miterlimit:4;stroke-dasharray:13.33, 13.33;stroke-dashoffset:0;stroke-opacity:1"
         id="path366"
         inkscape:connector-curvature="0" /></g><g
       id="g368"
       transform="translate(82.4148,272.5352)"><path
         d="m 0,0 v -8.414 h 6.665 m 66.653,0 h 6.665 V 0 m 0,16.832 v 8.414 h -6.665 m -66.653,0 H 0 v -8.414"
         style="fill:none;stroke:#ffe100;stroke-width:1;stroke-linecap:butt;stroke-linejoin:miter;stroke-miterlimit:4;stroke-dasharray:none;stroke-opacity:1"
         id="path370"
         inkscape:connector-curvature="0" /></g><g
       id="g372"
       transform="translate(188.6265,279.0469)"><path
         d="M 0,0 V -68.688"
         style="fill:none;stroke:#ffe100;stroke-width:1;stroke-linecap:butt;stroke-linejoin:miter;stroke-miterlimit:4;stroke-dasharray:12.489, 12.489;stroke-dashoffset:0;stroke-opacity:1"
         id="path374"
         inkscape:connector-curvature="0" /></g><g
       id="g376"
       transform="translate(207.2992,197.8672)"><path
         d="M 0,0 H 118.26"
         style="fill:none;stroke:#ffe100;stroke-width:1;stroke-linecap:butt;stroke-linejoin:miter;stroke-miterlimit:4;stroke-dasharray:12.448, 12.448;stroke-dashoffset:0;stroke-opacity:1"
         id="path378"
         inkscape:connector-curvature="0" /></g><g
       id="g380"
       transform="translate(338.0077,216.6016)"><path
         d="M 0,0 V 68.691"
         style="fill:none;stroke:#ffe100;stroke-width:1;stroke-linecap:butt;stroke-linejoin:miter;stroke-miterlimit:4;stroke-dasharray:12.489, 12.489;stroke-dashoffset:0;stroke-opacity:1"
         id="path382"
         inkscape:connector-curvature="0" /></g><g
       id="g384"
       transform="translate(319.3351,297.7812)"><path
         d="M 0,0 H -118.26"
         style="fill:none;stroke:#ffe100;stroke-width:1;stroke-linecap:butt;stroke-linejoin:miter;stroke-miterlimit:4;stroke-dasharray:12.448, 12.448;stroke-dashoffset:0;stroke-opacity:1"
         id="path386"
         inkscape:connector-curvature="0" /></g><g
       id="g388"
       transform="translate(188.6265,204.1133)"><path
         d="m 0,0 v -6.246 h 6.224 m 136.933,0 h 6.224 V 0 m 0,87.426 v 6.242 h -6.224 m -136.933,0 H 0 v -6.242"
         style="fill:none;stroke:#ffe100;stroke-width:1;stroke-linecap:butt;stroke-linejoin:miter;stroke-miterlimit:4;stroke-dasharray:none;stroke-opacity:1"
         id="path390"
         inkscape:connector-curvature="0" /></g><g
       id="g392"
       transform="translate(356.3374,281.3945)"><path
         d="M 0,0 V -38.238"
         style="fill:none;stroke:#ffe100;stroke-width:1;stroke-linecap:butt;stroke-linejoin:miter;stroke-miterlimit:4;stroke-dasharray:10.925, 10.925;stroke-dashoffset:0;stroke-opacity:1"
         id="path394"
         inkscape:connector-curvature="0" /></g><g
       id="g396"
       transform="translate(375.5327,232.2305)"><path
         d="M 0,0 H 70.383"
         style="fill:none;stroke:#ffe100;stroke-width:1;stroke-linecap:butt;stroke-linejoin:miter;stroke-miterlimit:4;stroke-dasharray:12.797, 12.797;stroke-dashoffset:0;stroke-opacity:1"
         id="path398"
         inkscape:connector-curvature="0" /></g><g
       id="g400"
       transform="translate(458.7126,248.6172)"><path
         d="M 0,0 V 38.238"
         style="fill:none;stroke:#ffe100;stroke-width:1;stroke-linecap:butt;stroke-linejoin:miter;stroke-miterlimit:4;stroke-dasharray:10.925, 10.925;stroke-dashoffset:0;stroke-opacity:1"
         id="path402"
         inkscape:connector-curvature="0" /></g><g
       id="g404"
       transform="translate(439.5172,297.7812)"><path
         d="M 0,0 H -70.383"
         style="fill:none;stroke:#ffe100;stroke-width:1;stroke-linecap:butt;stroke-linejoin:miter;stroke-miterlimit:4;stroke-dasharray:12.797, 12.797;stroke-dashoffset:0;stroke-opacity:1"
         id="path406"
         inkscape:connector-curvature="0" /></g><g
       id="g408"
       transform="translate(356.3374,237.6953)"><path
         d="m 0,0 v -5.465 h 6.398 m 89.579,0 h 6.398 V 0 m 0,54.625 v 5.461 h -6.398 m -89.579,0 H 0 v -5.461"
         style="fill:none;stroke:#ffe100;stroke-width:1;stroke-linecap:butt;stroke-linejoin:miter;stroke-miterlimit:4;stroke-dasharray:none;stroke-opacity:1"
         id="path410"
         inkscape:connector-curvature="0" /></g><g
       id="g412"
       transform="translate(267.2783,425.5781)"><path
         d="M 0,0 V -19.023"
         style="fill:none;stroke:#ffe100;stroke-width:1;stroke-linecap:butt;stroke-linejoin:miter;stroke-miterlimit:4;stroke-dasharray:12.683, 12.683;stroke-dashoffset:0;stroke-opacity:1"
         id="path414"
         inkscape:connector-curvature="0" /></g><g
       id="g416"
       transform="translate(285.3421,393.8711)"><path
         d="M 0,0 H 90.319"
         style="fill:none;stroke:#ffe100;stroke-width:1;stroke-linecap:butt;stroke-linejoin:miter;stroke-miterlimit:4;stroke-dasharray:12.043, 12.043;stroke-dashoffset:0;stroke-opacity:1"
         id="path418"
         inkscape:connector-curvature="0" /></g><g
       id="g420"
       transform="translate(387.7035,412.8945)"><path
         d="M 0,0 V 19.023"
         style="fill:none;stroke:#ffe100;stroke-width:1;stroke-linecap:butt;stroke-linejoin:miter;stroke-miterlimit:4;stroke-dasharray:12.683, 12.683;stroke-dashoffset:0;stroke-opacity:1"
         id="path422"
         inkscape:connector-curvature="0" /></g><g
       id="g424"
       transform="translate(369.6397,444.6016)"><path
         d="M 0,0 H -90.319"
         style="fill:none;stroke:#ffe100;stroke-width:1;stroke-linecap:butt;stroke-linejoin:miter;stroke-miterlimit:4;stroke-dasharray:12.043, 12.043;stroke-dashoffset:0;stroke-opacity:1"
         id="path426"
         inkscape:connector-curvature="0" /></g><g
       id="g428"
       transform="translate(267.2783,400.2109)"><path
         d="m 0,0 v -6.34 h 6.021 m 108.383,0 h 6.021 V 0 m 0,38.051 v 6.34 h -6.021 m -108.383,0 H 0 v -6.34"
         style="fill:none;stroke:#ffe100;stroke-width:1;stroke-linecap:butt;stroke-linejoin:miter;stroke-miterlimit:4;stroke-dasharray:none;stroke-opacity:1"
         id="path430"
         inkscape:connector-curvature="0" /></g><g
       id="g432"
       transform="translate(402.0435,440.375)"><path
         d="M 0,0 V -36.172"
         style="fill:none;stroke:#ffe100;stroke-width:1;stroke-linecap:butt;stroke-linejoin:miter;stroke-miterlimit:4;stroke-dasharray:10.335, 10.335;stroke-dashoffset:0;stroke-opacity:1"
         id="path434"
         inkscape:connector-curvature="0" /></g><g
       id="g436"
       transform="translate(420.82,393.8711)"><path
         d="M 0,0 H 118.918"
         style="fill:none;stroke:#ffe100;stroke-width:1;stroke-linecap:butt;stroke-linejoin:miter;stroke-miterlimit:4;stroke-dasharray:12.518, 12.518;stroke-dashoffset:0;stroke-opacity:1"
         id="path438"
         inkscape:connector-curvature="0" /></g><g
       id="g440"
       transform="translate(552.2559,409.3711)"><path
         d="M 0,0 V 36.172"
         style="fill:none;stroke:#ffe100;stroke-width:1;stroke-linecap:butt;stroke-linejoin:miter;stroke-miterlimit:4;stroke-dasharray:10.335, 10.335;stroke-dashoffset:0;stroke-opacity:1"
         id="path442"
         inkscape:connector-curvature="0" /></g><g
       id="g444"
       transform="translate(533.4793,455.8789)"><path
         d="M 0,0 H -118.918"
         style="fill:none;stroke:#ffe100;stroke-width:1;stroke-linecap:butt;stroke-linejoin:miter;stroke-miterlimit:4;stroke-dasharray:12.518, 12.518;stroke-dashoffset:0;stroke-opacity:1"
         id="path446"
         inkscape:connector-curvature="0" /></g><g
       id="g448"
       transform="translate(402.0435,399.0391)"><path
         d="m 0,0 v -5.168 h 6.259 m 137.695,0 h 6.258 V 0 m 0,51.672 v 5.168 h -6.258 m -137.695,0 H 0 v -5.168"
         style="fill:none;stroke:#ffe100;stroke-width:1;stroke-linecap:butt;stroke-linejoin:miter;stroke-miterlimit:4;stroke-dasharray:none;stroke-opacity:1"
         id="path450"
         inkscape:connector-curvature="0" /></g><g
       id="g452"
       transform="translate(71.0315,678)"><path
         d="M 0,0 V -490.84"
         style="fill:none;stroke:#ff4e51;stroke-width:2;stroke-linecap:butt;stroke-linejoin:miter;stroke-miterlimit:4;stroke-dasharray:11.827, 11.827;stroke-dashoffset:0;stroke-opacity:1"
         id="path454"
         inkscape:connector-curvature="0" /></g><g
       id="g456"
       transform="translate(89.1589,175.332)"><path
         d="M 0,0 H 477.355"
         style="fill:none;stroke:#ff4e51;stroke-width:2;stroke-linecap:butt;stroke-linejoin:miter;stroke-miterlimit:4;stroke-dasharray:12.085, 12.085;stroke-dashoffset:0;stroke-opacity:1"
         id="path458"
         inkscape:connector-curvature="0" /></g><g
       id="g460"
       transform="translate(578.599,193.0703)"><path
         d="M 0,0 V 490.844"
         style="fill:none;stroke:#ff4e51;stroke-width:2;stroke-linecap:butt;stroke-linejoin:miter;stroke-miterlimit:4;stroke-dasharray:11.827, 11.827;stroke-dashoffset:0;stroke-opacity:1"
         id="path462"
         inkscape:connector-curvature="0" /></g><g
       id="g464"
       transform="translate(560.4716,695.7422)"><path
         d="M 0,0 H -477.355"
         style="fill:none;stroke:#ff4e51;stroke-width:2;stroke-linecap:butt;stroke-linejoin:miter;stroke-miterlimit:4;stroke-dasharray:12.085, 12.085;stroke-dashoffset:0;stroke-opacity:1"
         id="path466"
         inkscape:connector-curvature="0" /></g><g
       id="g468"
       transform="translate(71.0315,181.2461)"><path
         d="m 0,0 v -5.914 h 6.042 m 495.483,0 h 6.043 V 0 m 0,508.582 v 5.914 h -6.043 m -495.483,0 H 0 v -5.914"
         style="fill:none;stroke:#ff4e51;stroke-width:2;stroke-linecap:butt;stroke-linejoin:miter;stroke-miterlimit:4;stroke-dasharray:none;stroke-opacity:1"
         id="path470"
         inkscape:connector-curvature="0" /></g><text
       transform="matrix(1,0,0,-1,13.161,19.1432)"
       style="font-variant:normal;font-weight:normal;font-stretch:normal;font-size:14px;font-family:Apercu;-inkscape-font-specification:Apercu;writing-mode:lr-tb;fill:#ffffff;fill-opacity:1;fill-rule:nonzero;stroke:none"
       id="text474"><tspan
         x="0 8.092"
         y="0"
         sodipodi:role="line"
         id="tspan472">35</tspan></text>
</g></svg>